BenchNine-Light.ufo
<glyph name="plus" format="1">
  <advance width="801"/>
  <unicode hex="002B"/>
  <outline>
    <contour>
      <point x="395" y="298" type="curve" smooth="yes"/>
      <point x="427" y="298" type="line" smooth="yes"/>
      <point x="445" y="298"/>
      <point x="458" y="302"/>
      <point x="458" y="343" type="curve" smooth="yes"/>
      <point x="458" y="541" type="line" smooth="yes"/>
      <point x="458" y="561"/>
      <point x="465" y="563"/>
      <point x="475" y="563" type="curve" smooth="yes"/>
      <point x="660" y="563" type="line" smooth="yes"/>
      <point x="676" y="563"/>
      <point x="691" y="567"/>
      <point x="691" y="600" type="curve" smooth="yes"/>
      <point x="691" y="615" type="line" smooth="yes"/>
      <point x="691" y="649"/>
      <point x="676" y="652"/>
      <point x="660" y="652" type="curve" smooth="yes"/>
      <point x="475" y="652" type="line" smooth="yes"/>
      <point x="465" y="652"/>
      <point x="458" y="654"/>
      <point x="458" y="674" type="curve" smooth="yes"/>
      <point x="458" y="867" type="line" smooth="yes"/>
      <point x="458" y="908"/>
      <point x="445" y="912"/>
      <point x="427" y="912" type="curve" smooth="yes"/>
      <point x="395" y="912" type="line" smooth="yes"/>
      <point x="376" y="912"/>
      <point x="362" y="908"/>
      <point x="362" y="867" type="curve" smooth="yes"/>
      <point x="362" y="674" type="line" smooth="yes"/>
      <point x="362" y="654"/>
      <point x="356" y="652"/>
      <point x="347" y="652" type="curve" smooth="yes"/>
      <point x="159" y="652" type="line" smooth="yes"/>
      <point x="142" y="652"/>
      <point x="128" y="649"/>
      <point x="128" y="615" type="curve" smooth="yes"/>
      <point x="128" y="600" type="line" smooth="yes"/>
      <point x="128" y="567"/>
      <point x="142" y="563"/>
      <point x="159" y="563" type="curve" smooth="yes"/>
      <point x="347" y="563" type="line" smooth="yes"/>
      <point x="356" y="563"/>
      <point x="362" y="561"/>
      <point x="362" y="541" type="curve" smooth="yes"/>
      <point x="362" y="343" type="line" smooth="yes"/>
      <point x="362" y="302"/>
      <point x="376" y="298"/>
    </contour>
  </outline>
</glyph>
<glyph name="two" format="1">
  <advance width="759"/>
  <unicode hex="0032"/>
  <outline>
    <contour>
      <point x="616" y="0" type="line" smooth="yes"/>
      <point x="630" y="0"/>
      <point x="637" y="3"/>
      <point x="637" y="33" type="curve" smooth="yes"/>
      <point x="637" y="52" type="line" smooth="yes"/>
      <point x="637" y="83"/>
      <point x="630" y="87"/>
      <point x="617" y="87" type="curve" smooth="yes"/>
      <point x="220" y="87" type="line" smooth="yes"/>
      <point x="217" y="87"/>
      <point x="215" y="132"/>
      <point x="216" y="136" type="curve" smooth="yes"/>
      <point x="244" y="571"/>
      <point x="683" y="735"/>
      <point x="683" y="1114" type="curve" smooth="yes"/>
      <point x="683" y="1375"/>
      <point x="535" y="1452"/>
      <point x="373" y="1452" type="curve" smooth="yes"/>
      <point x="253" y="1452"/>
      <point x="175" y="1427"/>
      <point x="79" y="1388" type="curve"/>
      <point x="75" y="1385"/>
      <point x="73" y="1377"/>
      <point x="73" y="1365" type="curve" smooth="yes"/>
      <point x="73" y="1349"/>
      <point x="84" y="1313"/>
      <point x="95" y="1300" type="curve"/>
      <point x="96" y="1294"/>
      <point x="98" y="1291"/>
      <point x="103" y="1296" type="curve"/>
      <point x="192" y="1326"/>
      <point x="240" y="1358"/>
      <point x="372" y="1358" type="curve" smooth="yes"/>
      <point x="495" y="1358"/>
      <point x="575" y="1290"/>
      <point x="575" y="1102" type="curve" smooth="yes"/>
      <point x="575" y="746"/>
      <point x="116" y="612"/>
      <point x="107" y="105" type="curve" smooth="yes"/>
      <point x="106" y="103"/>
      <point x="106" y="46"/>
      <point x="106" y="44" type="curve" smooth="yes"/>
      <point x="106" y="7"/>
      <point x="115" y="0"/>
      <point x="130" y="0" type="curve" smooth="yes"/>
    </contour>
  </outline>
</glyph>
<glyph name="six" format="1">
  <advance width="795"/>
  <unicode hex="0036"/>
  <outline>
    <contour>
      <point x="94" y="721" type="curve" smooth="yes"/>
      <point x="94" y="252"/>
      <point x="148" y="-13"/>
      <point x="404" y="-13" type="curve" smooth="yes"/>
      <point x="578" y="-13"/>
      <point x="713" y="71"/>
      <point x="713" y="431" type="curve" smooth="yes"/>
      <point x="713" y="668"/>
      <point x="656" y="864"/>
      <point x="426" y="864" type="curve" smooth="yes"/>
      <point x="369" y="864"/>
      <point x="292" y="847"/>
      <point x="212" y="816" type="curve"/>
      <point x="212" y="854" type="line" smooth="yes"/>
      <point x="212" y="1222"/>
      <point x="284" y="1358"/>
      <point x="447" y="1358" type="curve" smooth="yes"/>
      <point x="542" y="1358"/>
      <point x="597" y="1312"/>
      <point x="629" y="1290" type="curve" smooth="yes"/>
      <point x="640" y="1282"/>
      <point x="648" y="1290"/>
      <point x="653" y="1306" type="curve"/>
      <point x="656" y="1312"/>
      <point x="660" y="1341"/>
      <point x="659" y="1348" type="curve"/>
      <point x="659" y="1356"/>
      <point x="655" y="1374"/>
      <point x="647" y="1381" type="curve" smooth="yes"/>
      <point x="608" y="1415"/>
      <point x="525" y="1452"/>
      <point x="438" y="1452" type="curve" smooth="yes"/>
      <point x="204" y="1452"/>
      <point x="94" y="1278"/>
    </contour>
    <contour>
      <point x="408" y="81" type="curve" smooth="yes"/>
      <point x="254" y="81"/>
      <point x="209" y="244"/>
      <point x="209" y="665" type="curve" smooth="yes"/>
      <point x="209" y="721" type="line"/>
      <point x="294" y="753"/>
      <point x="369" y="768"/>
      <point x="421" y="768" type="curve" smooth="yes"/>
      <point x="572" y="768"/>
      <point x="602" y="605"/>
      <point x="602" y="439" type="curve" smooth="yes"/>
      <point x="602" y="157"/>
      <point x="533" y="81"/>
    </contour>
  </outline>
</glyph>
<glyph name="seven" format="1">
  <advance width="499"/>
  <unicode hex="0037"/>
  <outline>
    <contour>
      <point x="192" y="0" type="curve" smooth="yes"/>
      <point x="257" y="0" type="line" smooth="yes"/>
      <point x="272" y="0"/>
      <point x="277" y="10"/>
      <point x="281" y="51" type="curve" smooth="yes"/>
      <point x="414" y="1389" type="line" smooth="yes"/>
      <point x="415" y="1395"/>
      <point x="415" y="1401"/>
      <point x="415" y="1406" type="curve" smooth="yes"/>
      <point x="415" y="1433"/>
      <point x="406" y="1438"/>
      <point x="392" y="1438" type="curve" smooth="yes"/>
      <point x="107" y="1438" type="line" smooth="yes"/>
      <point x="92" y="1438"/>
      <point x="84" y="1435"/>
      <point x="84" y="1411" type="curve" smooth="yes"/>
      <point x="84" y="1366" type="line" smooth="yes"/>
      <point x="84" y="1337"/>
      <point x="92" y="1335"/>
      <point x="107" y="1335" type="curve" smooth="yes"/>
      <point x="281" y="1335" type="line" smooth="yes"/>
      <point x="288" y="1335"/>
      <point x="292" y="1331"/>
      <point x="291" y="1320" type="curve" smooth="yes"/>
      <point x="169" y="51" type="line" smooth="yes"/>
      <point x="168" y="46"/>
      <point x="168" y="40"/>
      <point x="168" y="36" type="curve" smooth="yes"/>
      <point x="168" y="7"/>
      <point x="179" y="0"/>
    </contour>
  </outline>
</glyph>
<glyph name="colon" format="1">
  <advance width="306"/>
  <unicode hex="003A"/>
  <outline>
    <contour>
      <point x="124" y="0" type="curve" smooth="yes"/>
      <point x="184" y="0" type="line" smooth="yes"/>
      <point x="199" y="0"/>
      <point x="210" y="30"/>
      <point x="210" y="73" type="curve" smooth="yes"/>
      <point x="210" y="235" type="line" smooth="yes"/>
      <point x="210" y="278"/>
      <point x="199" y="308"/>
      <point x="184" y="308" type="curve" smooth="yes"/>
      <point x="124" y="308" type="line" smooth="yes"/>
      <point x="110" y="308"/>
      <point x="98" y="278"/>
      <point x="98" y="235" type="curve" smooth="yes"/>
      <point x="98" y="73" type="line" smooth="yes"/>
      <point x="98" y="30"/>
      <point x="110" y="0"/>
    </contour>
    <contour>
      <point x="124" y="734" type="curve" smooth="yes"/>
      <point x="184" y="734" type="line" smooth="yes"/>
      <point x="199" y="734"/>
      <point x="210" y="764"/>
      <point x="210" y="807" type="curve" smooth="yes"/>
      <point x="210" y="970" type="line" smooth="yes"/>
      <point x="210" y="1013"/>
      <point x="199" y="1043"/>
      <point x="184" y="1043" type="curve" smooth="yes"/>
      <point x="124" y="1043" type="line" smooth="yes"/>
      <point x="110" y="1043"/>
      <point x="98" y="1013"/>
      <point x="98" y="970" type="curve" smooth="yes"/>
      <point x="98" y="807" type="line" smooth="yes"/>
      <point x="98" y="764"/>
      <point x="110" y="734"/>
    </contour>
  </outline>
</glyph>
<glyph name="semicolon" format="1">
  <advance width="320"/>
  <unicode hex="003B"/>
  <outline>
    <contour>
      <point x="121" y="-309" type="curve" smooth="yes"/>
      <point x="169" y="-286"/>
      <point x="229" y="-156"/>
      <point x="229" y="81" type="curve" smooth="yes"/>
      <point x="229" y="241" type="line" smooth="yes"/>
      <point x="229" y="284"/>
      <point x="217" y="314"/>
      <point x="202" y="314" type="curve" smooth="yes"/>
      <point x="119" y="314" type="line" smooth="yes"/>
      <point x="104" y="314"/>
      <point x="98" y="295"/>
      <point x="98" y="252" type="curve" smooth="yes"/>
      <point x="98" y="52" type="line" smooth="yes"/>
      <point x="98" y="14"/>
      <point x="106" y="0"/>
      <point x="119" y="0" type="curve" smooth="yes"/>
      <point x="151" y="0" type="line" smooth="yes"/>
      <point x="157" y="0"/>
      <point x="157" y="-11"/>
      <point x="157" y="-27" type="curve" smooth="yes"/>
      <point x="157" y="-59"/>
      <point x="145" y="-136"/>
      <point x="119" y="-177" type="curve" smooth="yes"/>
      <point x="103" y="-203"/>
      <point x="98" y="-198"/>
      <point x="98" y="-252" type="curve" smooth="yes"/>
      <point x="98" y="-264" type="line" smooth="yes"/>
      <point x="98" y="-295"/>
      <point x="106" y="-310"/>
      <point x="116" y="-310" type="curve" smooth="yes"/>
      <point x="118" y="-310"/>
      <point x="119" y="-310"/>
    </contour>
    <contour>
      <point x="130" y="734" type="curve" smooth="yes"/>
      <point x="195" y="734" type="line" smooth="yes"/>
      <point x="210" y="734"/>
      <point x="221" y="764"/>
      <point x="221" y="807" type="curve" smooth="yes"/>
      <point x="221" y="970" type="line" smooth="yes"/>
      <point x="221" y="1013"/>
      <point x="210" y="1043"/>
      <point x="195" y="1043" type="curve" smooth="yes"/>
      <point x="130" y="1043" type="line" smooth="yes"/>
      <point x="116" y="1043"/>
      <point x="105" y="1013"/>
      <point x="105" y="970" type="curve" smooth="yes"/>
      <point x="105" y="807" type="line" smooth="yes"/>
      <point x="105" y="764"/>
      <point x="116" y="734"/>
    </contour>
  </outline>
</glyph>
<glyph name="equal" format="1">
  <advance width="469"/>
  <unicode hex="003D"/>
  <outline>
    <contour>
      <point x="69" y="357" type="curve" smooth="yes"/>
      <point x="400" y="357" type="line" smooth="yes"/>
      <point x="415" y="357"/>
      <point x="421" y="358"/>
      <point x="421" y="401" type="curve" smooth="yes"/>
      <point x="421" y="417" type="line" smooth="yes"/>
      <point x="421" y="460"/>
      <point x="415" y="460"/>
      <point x="400" y="460" type="curve" smooth="yes"/>
      <point x="69" y="460" type="line" smooth="yes"/>
      <point x="54" y="460"/>
      <point x="48" y="460"/>
      <point x="48" y="417" type="curve" smooth="yes"/>
      <point x="48" y="401" type="line" smooth="yes"/>
      <point x="48" y="358"/>
      <point x="54" y="357"/>
    </contour>
    <contour>
      <point x="69" y="627" type="curve" smooth="yes"/>
      <point x="400" y="627" type="line" smooth="yes"/>
      <point x="415" y="627"/>
      <point x="421" y="628"/>
      <point x="421" y="671" type="curve" smooth="yes"/>
      <point x="421" y="686" type="line" smooth="yes"/>
      <point x="421" y="729"/>
      <point x="415" y="730"/>
      <point x="400" y="730" type="curve" smooth="yes"/>
      <point x="69" y="730" type="line" smooth="yes"/>
      <point x="54" y="730"/>
      <point x="48" y="729"/>
      <point x="48" y="686" type="curve" smooth="yes"/>
      <point x="48" y="671" type="line" smooth="yes"/>
      <point x="48" y="628"/>
      <point x="54" y="627"/>
    </contour>
  </outline>
</glyph>
<glyph name="at" format="1">
  <advance width="1258"/>
  <unicode hex="0040"/>
  <outline>
    <contour>
      <point x="648" y="-121" type="curve" smooth="yes"/>
      <point x="758" y="-121"/>
      <point x="873" y="-80"/>
      <point x="938" y="-44" type="curve" smooth="yes"/>
      <point x="939" y="-43"/>
      <point x="940" y="-42"/>
      <point x="940" y="-39" type="curve" smooth="yes"/>
      <point x="940" y="-23"/>
      <point x="921" y="25"/>
      <point x="915" y="25" type="curve" smooth="yes"/>
      <point x="849" y="25"/>
      <point x="745" y="-43"/>
      <point x="656" y="-43" type="curve" smooth="yes"/>
      <point x="257" y="-43"/>
      <point x="165" y="321"/>
      <point x="165" y="678" type="curve" smooth="yes"/>
      <point x="165" y="1029"/>
      <point x="266" y="1397"/>
      <point x="630" y="1397" type="curve" smooth="yes"/>
      <point x="1015" y="1397"/>
      <point x="1084" y="1091"/>
      <point x="1084" y="692" type="curve" smooth="yes"/>
      <point x="1084" y="386"/>
      <point x="1047" y="310"/>
      <point x="994" y="310" type="curve" smooth="yes"/>
      <point x="944" y="310"/>
      <point x="913" y="335"/>
      <point x="913" y="504" type="curve" smooth="yes"/>
      <point x="913" y="991" type="line" smooth="yes"/>
      <point x="913" y="1021"/>
      <point x="906" y="1041"/>
      <point x="891" y="1041" type="curve" smooth="yes"/>
      <point x="885" y="1041" type="line" smooth="yes"/>
      <point x="866" y="1041"/>
      <point x="859" y="1028"/>
      <point x="854" y="994" type="curve"/>
      <point x="842" y="857" type="line" smooth="yes"/>
      <point x="841" y="849"/>
      <point x="840" y="844"/>
      <point x="837" y="844" type="curve" smooth="yes"/>
      <point x="835" y="844"/>
      <point x="829" y="856"/>
      <point x="828" y="864" type="curve" smooth="yes"/>
      <point x="797" y="1007"/>
      <point x="711" y="1087"/>
      <point x="601" y="1087" type="curve" smooth="yes"/>
      <point x="456" y="1087"/>
      <point x="333" y="961"/>
      <point x="333" y="660" type="curve" smooth="yes"/>
      <point x="333" y="354"/>
      <point x="453" y="230"/>
      <point x="598" y="230" type="curve" smooth="yes"/>
      <point x="715" y="230"/>
      <point x="797" y="304"/>
      <point x="838" y="449" type="curve" smooth="yes"/>
      <point x="840" y="457"/>
      <point x="843" y="481"/>
      <point x="849" y="481" type="curve" smooth="yes"/>
      <point x="854" y="481"/>
      <point x="857" y="464"/>
      <point x="859" y="444" type="curve" smooth="yes"/>
      <point x="869" y="315"/>
      <point x="894" y="238"/>
      <point x="993" y="238" type="curve" smooth="yes"/>
      <point x="1103" y="238"/>
      <point x="1176" y="365"/>
      <point x="1176" y="692" type="curve" smooth="yes"/>
      <point x="1175" y="1116"/>
      <point x="1103" y="1484"/>
      <point x="627" y="1484" type="curve" smooth="yes"/>
      <point x="194" y="1484"/>
      <point x="71" y="1093"/>
      <point x="71" y="682" type="curve" smooth="yes"/>
      <point x="71" y="253"/>
      <point x="205" y="-121"/>
    </contour>
    <contour>
      <point x="611" y="309" type="curve" smooth="yes"/>
      <point x="501" y="309"/>
      <point x="427" y="408"/>
      <point x="427" y="657" type="curve" smooth="yes"/>
      <point x="427" y="903"/>
      <point x="504" y="1001"/>
      <point x="614" y="1001" type="curve" smooth="yes"/>
      <point x="723" y="1001"/>
      <point x="806" y="878"/>
      <point x="806" y="652" type="curve" smooth="yes"/>
      <point x="806" y="427"/>
      <point x="719" y="309"/>
    </contour>
  </outline>
</glyph>
<glyph name="B" format="1">
  <advance width="862"/>
  <unicode hex="0042"/>
  <outline>
    <contour>
      <point x="135" y="0" type="curve" smooth="yes"/>
      <point x="431" y="0" type="line" smooth="yes"/>
      <point x="671" y="0"/>
      <point x="800" y="96"/>
      <point x="800" y="424" type="curve" smooth="yes"/>
      <point x="800" y="590"/>
      <point x="741" y="701"/>
      <point x="649" y="758" type="curve" smooth="yes"/>
      <point x="644" y="760"/>
      <point x="640" y="764"/>
      <point x="640" y="766" type="curve" smooth="yes"/>
      <point x="640" y="768"/>
      <point x="643" y="772"/>
      <point x="648" y="775" type="curve" smooth="yes"/>
      <point x="732" y="829"/>
      <point x="762" y="931"/>
      <point x="762" y="1042" type="curve" smooth="yes"/>
      <point x="762" y="1341"/>
      <point x="637" y="1438"/>
      <point x="451" y="1438" type="curve" smooth="yes"/>
      <point x="135" y="1438" type="line" smooth="yes"/>
      <point x="119" y="1438"/>
      <point x="108" y="1437"/>
      <point x="108" y="1397" type="curve" smooth="yes"/>
      <point x="108" y="39" type="line" smooth="yes"/>
      <point x="108" y="1"/>
      <point x="119" y="0"/>
    </contour>
    <contour>
      <point x="234" y="88" type="line" smooth="yes"/>
      <point x="226" y="88"/>
      <point x="220" y="88"/>
      <point x="220" y="104" type="curve" smooth="yes"/>
      <point x="220" y="700" type="line" smooth="yes"/>
      <point x="220" y="719"/>
      <point x="226" y="721"/>
      <point x="234" y="721" type="curve" smooth="yes"/>
      <point x="481" y="721" type="line" smooth="yes"/>
      <point x="595" y="721"/>
      <point x="688" y="609"/>
      <point x="688" y="420" type="curve" smooth="yes"/>
      <point x="688" y="209"/>
      <point x="619" y="88"/>
      <point x="430" y="88" type="curve" smooth="yes"/>
    </contour>
    <contour>
      <point x="234" y="807" type="line" smooth="yes"/>
      <point x="226" y="807"/>
      <point x="220" y="807"/>
      <point x="220" y="823" type="curve" smooth="yes"/>
      <point x="220" y="1328" type="line" smooth="yes"/>
      <point x="220" y="1348"/>
      <point x="226" y="1348"/>
      <point x="234" y="1348" type="curve" smooth="yes"/>
      <point x="438" y="1348" type="line" smooth="yes"/>
      <point x="583" y="1348"/>
      <point x="652" y="1254"/>
      <point x="652" y="1043" type="curve" smooth="yes"/>
      <point x="652" y="887"/>
      <point x="583" y="807"/>
      <point x="488" y="807" type="curve" smooth="yes"/>
    </contour>
  </outline>
</glyph>
<glyph name="H" format="1">
  <advance width="881"/>
  <unicode hex="0048"/>
  <outline>
    <contour>
      <point x="132" y="0" type="curve" smooth="yes"/>
      <point x="195" y="0" type="line" smooth="yes"/>
      <point x="211" y="0"/>
      <point x="221" y="4"/>
      <point x="221" y="47" type="curve" smooth="yes"/>
      <point x="221" y="674" type="line" smooth="yes"/>
      <point x="221" y="678"/>
      <point x="226" y="691"/>
      <point x="227" y="691" type="curve" smooth="yes"/>
      <point x="654" y="691" type="line" smooth="yes"/>
      <point x="655" y="691"/>
      <point x="662" y="676"/>
      <point x="662" y="672" type="curve" smooth="yes"/>
      <point x="662" y="47" type="line" smooth="yes"/>
      <point x="662" y="4"/>
      <point x="672" y="0"/>
      <point x="689" y="0" type="curve" smooth="yes"/>
      <point x="751" y="0" type="line" smooth="yes"/>
      <point x="765" y="0"/>
      <point x="774" y="4"/>
      <point x="774" y="47" type="curve" smooth="yes"/>
      <point x="774" y="1391" type="line" smooth="yes"/>
      <point x="774" y="1434"/>
      <point x="765" y="1438"/>
      <point x="751" y="1438" type="curve" smooth="yes"/>
      <point x="689" y="1438" type="line" smooth="yes"/>
      <point x="672" y="1438"/>
      <point x="662" y="1434"/>
      <point x="662" y="1391" type="curve" smooth="yes"/>
      <point x="662" y="807" type="line" smooth="yes"/>
      <point x="662" y="803"/>
      <point x="655" y="787"/>
      <point x="653" y="787" type="curve" smooth="yes"/>
      <point x="226" y="787" type="line" smooth="yes"/>
      <point x="225" y="787"/>
      <point x="220" y="800"/>
      <point x="220" y="804" type="curve" smooth="yes"/>
      <point x="220" y="1391" type="line" smooth="yes"/>
      <point x="220" y="1434"/>
      <point x="210" y="1438"/>
      <point x="194" y="1438" type="curve" smooth="yes"/>
      <point x="132" y="1438" type="line" smooth="yes"/>
      <point x="116" y="1438"/>
      <point x="108" y="1434"/>
      <point x="108" y="1391" type="curve" smooth="yes"/>
      <point x="108" y="47" type="line" smooth="yes"/>
      <point x="108" y="4"/>
      <point x="116" y="0"/>
    </contour>
  </outline>
</glyph>
<glyph name="M" format="1">
  <advance width="1027"/>
  <unicode hex="004D"/>
  <outline>
    <contour>
      <point x="124" y="0" type="curve" smooth="yes"/>
      <point x="176" y="0" type="line" smooth="yes"/>
      <point x="191" y="0"/>
      <point x="196" y="20"/>
      <point x="197" y="63" type="curve" smooth="yes"/>
      <point x="232" y="1212" type="line" smooth="yes"/>
      <point x="232" y="1214"/>
      <point x="235" y="1217"/>
      <point x="235" y="1217" type="curve"/>
      <point x="454" y="61" type="line"/>
      <point x="463" y="21"/>
      <point x="475" y="0"/>
      <point x="490" y="0" type="curve" smooth="yes"/>
      <point x="490" y="0"/>
      <point x="529" y="1"/>
      <point x="530" y="1" type="curve" smooth="yes"/>
      <point x="545" y="1"/>
      <point x="559" y="21"/>
      <point x="567" y="61" type="curve" smooth="yes"/>
      <point x="790" y="1227" type="line" smooth="yes"/>
      <point x="790" y="1229"/>
      <point x="795" y="1227"/>
      <point x="795" y="1225" type="curve" smooth="yes"/>
      <point x="828" y="63" type="line" smooth="yes"/>
      <point x="829" y="20"/>
      <point x="838" y="0"/>
      <point x="853" y="0" type="curve" smooth="yes"/>
      <point x="904" y="0" type="line" smooth="yes"/>
      <point x="918" y="0"/>
      <point x="926" y="18"/>
      <point x="926" y="56" type="curve" smooth="yes"/>
      <point x="926" y="63" type="line" smooth="yes"/>
      <point x="883" y="1374" type="line" smooth="yes"/>
      <point x="882" y="1416"/>
      <point x="875" y="1436"/>
      <point x="861" y="1438" type="curve"/>
      <point x="770" y="1438" type="line"/>
      <point x="755" y="1436"/>
      <point x="741" y="1417"/>
      <point x="732" y="1376" type="curve"/>
      <point x="515" y="253" type="line" smooth="yes"/>
      <point x="515" y="250"/>
      <point x="507" y="250"/>
      <point x="506" y="253" type="curve" smooth="yes"/>
      <point x="288" y="1384" type="line"/>
      <point x="278" y="1425"/>
      <point x="261" y="1436"/>
      <point x="246" y="1438" type="curve"/>
      <point x="166" y="1438" type="line"/>
      <point x="151" y="1436"/>
      <point x="144" y="1416"/>
      <point x="143" y="1374" type="curve" smooth="yes"/>
      <point x="101" y="63" type="line" smooth="yes"/>
      <point x="101" y="57" type="line" smooth="yes"/>
      <point x="101" y="18"/>
      <point x="111" y="0"/>
    </contour>
  </outline>
</glyph>
<glyph name="U" format="1">
  <advance width="918"/>
  <unicode hex="0055"/>
  <outline>
    <contour>
      <point x="467" y="-14" type="curve" smooth="yes"/>
      <point x="684" y="-14"/>
      <point x="818" y="42"/>
      <point x="818" y="600" type="curve" smooth="yes"/>
      <point x="818" y="1391" type="line" smooth="yes"/>
      <point x="818" y="1434"/>
      <point x="810" y="1438"/>
      <point x="795" y="1438" type="curve" smooth="yes"/>
      <point x="730" y="1438" type="line" smooth="yes"/>
      <point x="715" y="1438"/>
      <point x="706" y="1434"/>
      <point x="706" y="1391" type="curve" smooth="yes"/>
      <point x="706" y="602" type="line" smooth="yes"/>
      <point x="706" y="124"/>
      <point x="632" y="80"/>
      <point x="466" y="80" type="curve" smooth="yes"/>
      <point x="302" y="80"/>
      <point x="211" y="133"/>
      <point x="211" y="602" type="curve" smooth="yes"/>
      <point x="211" y="1391" type="line" smooth="yes"/>
      <point x="211" y="1434"/>
      <point x="202" y="1438"/>
      <point x="188" y="1438" type="curve" smooth="yes"/>
      <point x="123" y="1438" type="line" smooth="yes"/>
      <point x="108" y="1438"/>
      <point x="99" y="1434"/>
      <point x="99" y="1391" type="curve" smooth="yes"/>
      <point x="99" y="600" type="line" smooth="yes"/>
      <point x="99" y="43"/>
      <point x="244" y="-14"/>
    </contour>
  </outline>
</glyph>
<glyph name="X" format="1">
  <advance width="779"/>
  <unicode hex="0058"/>
  <outline>
    <contour>
      <point x="69" y="0" type="curve" smooth="yes"/>
      <point x="122" y="0" type="line" smooth="yes"/>
      <point x="139" y="0"/>
      <point x="151" y="8"/>
      <point x="167" y="48" type="curve" smooth="yes"/>
      <point x="390" y="616" type="line"/>
      <point x="592" y="49" type="line" smooth="yes"/>
      <point x="607" y="7"/>
      <point x="621" y="0"/>
      <point x="638" y="0" type="curve" smooth="yes"/>
      <point x="708" y="0" type="line" smooth="yes"/>
      <point x="718" y="0"/>
      <point x="724" y="10"/>
      <point x="724" y="26" type="curve" smooth="yes"/>
      <point x="724" y="36"/>
      <point x="721" y="50"/>
      <point x="716" y="65" type="curve" smooth="yes"/>
      <point x="467" y="760" type="line"/>
      <point x="714" y="1384" type="line" smooth="yes"/>
      <point x="719" y="1396"/>
      <point x="720" y="1407"/>
      <point x="720" y="1414" type="curve" smooth="yes"/>
      <point x="720" y="1429"/>
      <point x="715" y="1438"/>
      <point x="704" y="1438" type="curve" smooth="yes"/>
      <point x="648" y="1438" type="line" smooth="yes"/>
      <point x="631" y="1438"/>
      <point x="615" y="1429"/>
      <point x="599" y="1389" type="curve" smooth="yes"/>
      <point x="408" y="880" type="line"/>
      <point x="223" y="1389" type="line" smooth="yes"/>
      <point x="208" y="1430"/>
      <point x="193" y="1438"/>
      <point x="176" y="1438" type="curve" smooth="yes"/>
      <point x="92" y="1438" type="line" smooth="yes"/>
      <point x="86" y="1438"/>
      <point x="81" y="1430"/>
      <point x="81" y="1417" type="curve" smooth="yes"/>
      <point x="81" y="1407"/>
      <point x="86" y="1392"/>
      <point x="91" y="1373" type="curve"/>
      <point x="330" y="733" type="line"/>
      <point x="67" y="64" type="line" smooth="yes"/>
      <point x="60" y="47"/>
      <point x="58" y="32"/>
      <point x="58" y="22" type="curve" smooth="yes"/>
      <point x="58" y="9"/>
      <point x="63" y="0"/>
    </contour>
  </outline>
</glyph>
<glyph name="backslash" format="1">
  <advance width="528"/>
  <unicode hex="005C"/>
  <outline>
    <contour>
      <point x="354" y="-205" type="curve" smooth="yes"/>
      <point x="436" y="-205" type="line" smooth="yes"/>
      <point x="440" y="-205"/>
      <point x="444" y="-193"/>
      <point x="444" y="-179" type="curve" smooth="yes"/>
      <point x="444" y="-176"/>
      <point x="443" y="-173"/>
      <point x="443" y="-170" type="curve" smooth="yes"/>
      <point x="209" y="1612" type="line" smooth="yes"/>
      <point x="206" y="1633"/>
      <point x="200" y="1647"/>
      <point x="193" y="1647" type="curve" smooth="yes"/>
      <point x="111" y="1647" type="line" smooth="yes"/>
      <point x="106" y="1647"/>
      <point x="103" y="1636"/>
      <point x="103" y="1623" type="curve" smooth="yes"/>
      <point x="103" y="1620"/>
      <point x="104" y="1616"/>
      <point x="104" y="1612" type="curve" smooth="yes"/>
      <point x="337" y="-170" type="line" smooth="yes"/>
      <point x="340" y="-191"/>
      <point x="348" y="-205"/>
    </contour>
  </outline>
</glyph>
<glyph name="b" format="1">
  <advance width="712"/>
  <unicode hex="0062"/>
  <outline>
    <contour>
      <point x="389" y="-12" type="curve" smooth="yes"/>
      <point x="504" y="-12"/>
      <point x="635" y="112"/>
      <point x="635" y="503" type="curve" smooth="yes"/>
      <point x="635" y="907"/>
      <point x="522" y="1019"/>
      <point x="401" y="1019" type="curve" smooth="yes"/>
      <point x="327" y="1019"/>
      <point x="251" y="961"/>
      <point x="210" y="839" type="curve" smooth="yes"/>
      <point x="210" y="838"/>
      <point x="208" y="834"/>
      <point x="207" y="834" type="curve" smooth="yes"/>
      <point x="206" y="834"/>
      <point x="204" y="836"/>
      <point x="204" y="845" type="curve" smooth="yes"/>
      <point x="204" y="1366" type="line" smooth="yes"/>
      <point x="204" y="1409"/>
      <point x="196" y="1435"/>
      <point x="181" y="1435" type="curve" smooth="yes"/>
      <point x="121" y="1435" type="line" smooth="yes"/>
      <point x="107" y="1435"/>
      <point x="98" y="1409"/>
      <point x="98" y="1366" type="curve" smooth="yes"/>
      <point x="98" y="56" type="line" smooth="yes"/>
      <point x="98" y="13"/>
      <point x="103" y="0"/>
      <point x="117" y="0" type="curve" smooth="yes"/>
      <point x="128" y="0" type="line" smooth="yes"/>
      <point x="168" y="0"/>
      <point x="167" y="214"/>
      <point x="179" y="214" type="curve" smooth="yes"/>
      <point x="180" y="214"/>
      <point x="181" y="211"/>
      <point x="182" y="209" type="curve" smooth="yes"/>
      <point x="227" y="45"/>
      <point x="310" y="-12"/>
    </contour>
    <contour>
      <point x="370" y="73" type="curve" smooth="yes"/>
      <point x="277" y="73"/>
      <point x="204" y="261"/>
      <point x="204" y="506" type="curve" smooth="yes"/>
      <point x="204" y="769"/>
      <point x="290" y="934"/>
      <point x="377" y="934" type="curve" smooth="yes"/>
      <point x="463" y="934"/>
      <point x="530" y="819"/>
      <point x="530" y="506" type="curve" smooth="yes"/>
      <point x="530" y="189"/>
      <point x="460" y="73"/>
    </contour>
  </outline>
</glyph>
<glyph name="h" format="1">
  <advance width="684"/>
  <unicode hex="0068"/>
  <outline>
    <contour>
      <point x="122" y="0" type="curve" smooth="yes"/>
      <point x="182" y="0" type="line" smooth="yes"/>
      <point x="197" y="0"/>
      <point x="205" y="8"/>
      <point x="205" y="51" type="curve" smooth="yes"/>
      <point x="205" y="605" type="line" smooth="yes"/>
      <point x="205" y="770"/>
      <point x="295" y="934"/>
      <point x="388" y="934" type="curve" smooth="yes"/>
      <point x="466" y="934"/>
      <point x="490" y="839"/>
      <point x="490" y="621" type="curve" smooth="yes"/>
      <point x="490" y="51" type="line" smooth="yes"/>
      <point x="490" y="8"/>
      <point x="498" y="0"/>
      <point x="513" y="0" type="curve" smooth="yes"/>
      <point x="573" y="0" type="line" smooth="yes"/>
      <point x="586" y="0"/>
      <point x="596" y="8"/>
      <point x="596" y="51" type="curve" smooth="yes"/>
      <point x="596" y="591" type="line" smooth="yes"/>
      <point x="596" y="931"/>
      <point x="534" y="1019"/>
      <point x="409" y="1019" type="curve" smooth="yes"/>
      <point x="343" y="1019"/>
      <point x="258" y="974"/>
      <point x="213" y="835" type="curve" smooth="yes"/>
      <point x="212" y="832"/>
      <point x="210" y="831"/>
      <point x="208" y="831" type="curve" smooth="yes"/>
      <point x="206" y="831"/>
      <point x="205" y="832"/>
      <point x="205" y="839" type="curve" smooth="yes"/>
      <point x="205" y="1383" type="line" smooth="yes"/>
      <point x="205" y="1426"/>
      <point x="196" y="1438"/>
      <point x="181" y="1438" type="curve" smooth="yes"/>
      <point x="122" y="1438" type="line" smooth="yes"/>
      <point x="107" y="1438"/>
      <point x="99" y="1426"/>
      <point x="99" y="1383" type="curve" smooth="yes"/>
      <point x="99" y="51" type="line" smooth="yes"/>
      <point x="99" y="8"/>
      <point x="107" y="0"/>
    </contour>
  </outline>
</glyph>
<glyph name="j" format="1">
  <advance width="350"/>
  <unicode hex="006A"/>
  <outline>
    <contour>
      <point x="37" y="-304" type="curve" smooth="yes"/>
      <point x="90" y="-304" type="line" smooth="yes"/>
      <point x="196" y="-304"/>
      <point x="248" y="-274"/>
      <point x="248" y="3" type="curve" smooth="yes"/>
      <point x="248" y="953" type="line" smooth="yes"/>
      <point x="248" y="996"/>
      <point x="240" y="1006"/>
      <point x="224" y="1006" type="curve" smooth="yes"/>
      <point x="165" y="1006" type="line" smooth="yes"/>
      <point x="151" y="1006"/>
      <point x="142" y="996"/>
      <point x="142" y="953" type="curve" smooth="yes"/>
      <point x="142" y="11" type="line" smooth="yes"/>
      <point x="142" y="-160"/>
      <point x="129" y="-198"/>
      <point x="76" y="-198" type="curve" smooth="yes"/>
      <point x="37" y="-198" type="line" smooth="yes"/>
      <point x="21" y="-198"/>
      <point x="16" y="-210"/>
      <point x="16" y="-229" type="curve" smooth="yes"/>
      <point x="16" y="-269" type="line" smooth="yes"/>
      <point x="16" y="-291"/>
      <point x="22" y="-304"/>
    </contour>
    <contour>
      <point x="157" y="1174" type="curve" smooth="yes"/>
      <point x="230" y="1174" type="line" smooth="yes"/>
      <point x="245" y="1174"/>
      <point x="253" y="1180"/>
      <point x="253" y="1223" type="curve" smooth="yes"/>
      <point x="253" y="1295" type="line" smooth="yes"/>
      <point x="253" y="1338"/>
      <point x="245" y="1344"/>
      <point x="230" y="1344" type="curve" smooth="yes"/>
      <point x="157" y="1344" type="line" smooth="yes"/>
      <point x="142" y="1344"/>
      <point x="134" y="1338"/>
      <point x="134" y="1295" type="curve" smooth="yes"/>
      <point x="134" y="1223" type="line" smooth="yes"/>
      <point x="134" y="1180"/>
      <point x="142" y="1174"/>
    </contour>
  </outline>
</glyph>
<glyph name="l" format="1">
  <advance width="309"/>
  <unicode hex="006C"/>
  <outline>
    <contour>
      <point x="132" y="0" type="curve" smooth="yes"/>
      <point x="192" y="0" type="line" smooth="yes"/>
      <point x="207" y="0"/>
      <point x="215" y="20"/>
      <point x="215" y="63" type="curve" smooth="yes"/>
      <point x="215" y="1380" type="line" smooth="yes"/>
      <point x="215" y="1423"/>
      <point x="207" y="1445"/>
      <point x="192" y="1445" type="curve" smooth="yes"/>
      <point x="132" y="1445" type="line" smooth="yes"/>
      <point x="118" y="1445"/>
      <point x="109" y="1423"/>
      <point x="109" y="1380" type="curve" smooth="yes"/>
      <point x="109" y="63" type="line" smooth="yes"/>
      <point x="109" y="20"/>
      <point x="118" y="0"/>
    </contour>
  </outline>
</glyph>
<glyph name="m" format="1">
  <advance width="1044"/>
  <unicode hex="006D"/>
  <outline>
    <contour>
      <point x="121" y="0" type="curve" smooth="yes"/>
      <point x="179" y="0" type="line" smooth="yes"/>
      <point x="193" y="0"/>
      <point x="203" y="14"/>
      <point x="203" y="57" type="curve" smooth="yes"/>
      <point x="203" y="608" type="line" smooth="yes"/>
      <point x="203" y="752"/>
      <point x="270" y="934"/>
      <point x="370" y="934" type="curve" smooth="yes"/>
      <point x="437" y="934"/>
      <point x="474" y="869"/>
      <point x="474" y="645" type="curve" smooth="yes"/>
      <point x="474" y="57" type="line" smooth="yes"/>
      <point x="474" y="14"/>
      <point x="483" y="0"/>
      <point x="498" y="0" type="curve" smooth="yes"/>
      <point x="556" y="0" type="line" smooth="yes"/>
      <point x="570" y="0"/>
      <point x="580" y="14"/>
      <point x="580" y="57" type="curve" smooth="yes"/>
      <point x="580" y="611" type="line" smooth="yes"/>
      <point x="580" y="771"/>
      <point x="653" y="934"/>
      <point x="747" y="934" type="curve" smooth="yes"/>
      <point x="815" y="934"/>
      <point x="850" y="869"/>
      <point x="850" y="649" type="curve" smooth="yes"/>
      <point x="850" y="57" type="line" smooth="yes"/>
      <point x="850" y="14"/>
      <point x="859" y="0"/>
      <point x="874" y="0" type="curve" smooth="yes"/>
      <point x="933" y="0" type="line" smooth="yes"/>
      <point x="947" y="0"/>
      <point x="956" y="14"/>
      <point x="956" y="57" type="curve" smooth="yes"/>
      <point x="956" y="606" type="line" smooth="yes"/>
      <point x="956" y="948"/>
      <point x="878" y="1019"/>
      <point x="760" y="1019" type="curve" smooth="yes"/>
      <point x="689" y="1019"/>
      <point x="606" y="963"/>
      <point x="567" y="803" type="curve" smooth="yes"/>
      <point x="566" y="798"/>
      <point x="565" y="797"/>
      <point x="563" y="797" type="curve" smooth="yes"/>
      <point x="562" y="797"/>
      <point x="561" y="799"/>
      <point x="560" y="803" type="curve" smooth="yes"/>
      <point x="524" y="970"/>
      <point x="468" y="1019"/>
      <point x="381" y="1019" type="curve" smooth="yes"/>
      <point x="308" y="1019"/>
      <point x="227" y="967"/>
      <point x="187" y="798" type="curve" smooth="yes"/>
      <point x="186" y="791"/>
      <point x="184" y="784"/>
      <point x="182" y="784" type="curve" smooth="yes"/>
      <point x="178" y="784"/>
      <point x="177" y="789"/>
      <point x="176" y="797" type="curve" smooth="yes"/>
      <point x="164" y="950" type="line"/>
      <point x="158" y="998"/>
      <point x="150" y="1006"/>
      <point x="134" y="1006" type="curve" smooth="yes"/>
      <point x="119" y="1006" type="line" smooth="yes"/>
      <point x="104" y="1006"/>
      <point x="97" y="980"/>
      <point x="97" y="937" type="curve" smooth="yes"/>
      <point x="97" y="57" type="line" smooth="yes"/>
      <point x="97" y="14"/>
      <point x="107" y="0"/>
    </contour>
  </outline>
</glyph>
<glyph name="q" format="1">
  <advance width="711"/>
  <unicode hex="0071"/>
  <outline>
    <contour>
      <point x="535" y="-401" type="curve" smooth="yes"/>
      <point x="594" y="-401" type="line" smooth="yes"/>
      <point x="609" y="-401"/>
      <point x="617" y="-385"/>
      <point x="617" y="-342" type="curve" smooth="yes"/>
      <point x="617" y="952" type="line" smooth="yes"/>
      <point x="617" y="995"/>
      <point x="612" y="1010"/>
      <point x="598" y="1010" type="curve" smooth="yes"/>
      <point x="584" y="1010" type="line" smooth="yes"/>
      <point x="573" y="1010"/>
      <point x="563" y="999"/>
      <point x="555" y="933" type="curve" smooth="yes"/>
      <point x="551" y="903"/>
      <point x="541" y="809"/>
      <point x="541" y="782" type="curve" smooth="yes"/>
      <point x="541" y="776"/>
      <point x="538" y="771"/>
      <point x="536" y="771" type="curve" smooth="yes"/>
      <point x="534" y="771"/>
      <point x="533" y="774"/>
      <point x="531" y="778" type="curve" smooth="yes"/>
      <point x="490" y="940"/>
      <point x="425" y="1019"/>
      <point x="339" y="1019" type="curve" smooth="yes"/>
      <point x="213" y="1019"/>
      <point x="80" y="899"/>
      <point x="80" y="508" type="curve" smooth="yes"/>
      <point x="80" y="104"/>
      <point x="197" y="-12"/>
      <point x="329" y="-12" type="curve" smooth="yes"/>
      <point x="401" y="-12"/>
      <point x="465" y="47"/>
      <point x="504" y="166" type="curve" smooth="yes"/>
      <point x="505" y="170"/>
      <point x="507" y="172"/>
      <point x="508" y="172" type="curve" smooth="yes"/>
      <point x="510" y="172"/>
      <point x="511" y="169"/>
      <point x="511" y="162" type="curve" smooth="yes"/>
      <point x="511" y="-342" type="line" smooth="yes"/>
      <point x="511" y="-385"/>
      <point x="521" y="-401"/>
    </contour>
    <contour>
      <point x="348" y="73" type="curve" smooth="yes"/>
      <point x="263" y="73"/>
      <point x="187" y="169"/>
      <point x="187" y="505" type="curve" smooth="yes"/>
      <point x="187" y="781"/>
      <point x="258" y="934"/>
      <point x="348" y="934" type="curve" smooth="yes"/>
      <point x="440" y="934"/>
      <point x="511" y="756"/>
      <point x="511" y="505" type="curve" smooth="yes"/>
      <point x="511" y="234"/>
      <point x="436" y="73"/>
    </contour>
  </outline>
</glyph>
<glyph name="t" format="1">
  <advance width="449"/>
  <unicode hex="0074"/>
  <outline>
    <contour>
      <point x="309" y="-3" type="curve" smooth="yes"/>
      <point x="394" y="-3" type="line" smooth="yes"/>
      <point x="412" y="-3"/>
      <point x="422" y="3"/>
      <point x="422" y="24" type="curve" smooth="yes"/>
      <point x="422" y="67" type="line" smooth="yes"/>
      <point x="422" y="85"/>
      <point x="407" y="88"/>
      <point x="394" y="88" type="curve" smooth="yes"/>
      <point x="328" y="88" type="line" smooth="yes"/>
      <point x="276" y="88"/>
      <point x="233" y="111"/>
      <point x="233" y="307" type="curve" smooth="yes"/>
      <point x="233" y="895" type="line" smooth="yes"/>
      <point x="233" y="911"/>
      <point x="236" y="912"/>
      <point x="244" y="912" type="curve" smooth="yes"/>
      <point x="374" y="912" type="line" smooth="yes"/>
      <point x="390" y="912"/>
      <point x="398" y="915"/>
      <point x="398" y="949" type="curve" smooth="yes"/>
      <point x="398" y="968" type="line" smooth="yes"/>
      <point x="398" y="1002"/>
      <point x="390" y="1006"/>
      <point x="374" y="1006" type="curve" smooth="yes"/>
      <point x="244" y="1006" type="line" smooth="yes"/>
      <point x="236" y="1006"/>
      <point x="233" y="1013"/>
      <point x="233" y="1033" type="curve" smooth="yes"/>
      <point x="233" y="1426" type="line" smooth="yes"/>
      <point x="233" y="1469"/>
      <point x="225" y="1475"/>
      <point x="210" y="1475" type="curve" smooth="yes"/>
      <point x="167" y="1475" type="line" smooth="yes"/>
      <point x="153" y="1475"/>
      <point x="145" y="1468"/>
      <point x="144" y="1426" type="curve" smooth="yes"/>
      <point x="128" y="1033" type="line" smooth="yes"/>
      <point x="128" y="1013"/>
      <point x="124" y="1006"/>
      <point x="118" y="1006" type="curve" smooth="yes"/>
      <point x="52" y="1006" type="line" smooth="yes"/>
      <point x="37" y="1006"/>
      <point x="28" y="1002"/>
      <point x="28" y="968" type="curve" smooth="yes"/>
      <point x="28" y="949" type="line" smooth="yes"/>
      <point x="28" y="915"/>
      <point x="37" y="912"/>
      <point x="52" y="912" type="curve" smooth="yes"/>
      <point x="118" y="912" type="line" smooth="yes"/>
      <point x="124" y="912"/>
      <point x="128" y="911"/>
      <point x="128" y="895" type="curve" smooth="yes"/>
      <point x="128" y="305" type="line" smooth="yes"/>
      <point x="128" y="58"/>
      <point x="200" y="-3"/>
    </contour>
  </outline>
</glyph>
<glyph name="u" format="1">
  <advance width="675"/>
  <unicode hex="0075"/>
  <outline>
    <contour>
      <point x="291" y="-12" type="curve" smooth="yes"/>
      <point x="366" y="-12"/>
      <point x="450" y="26"/>
      <point x="488" y="190" type="curve" smooth="yes"/>
      <point x="489" y="197"/>
      <point x="491" y="204"/>
      <point x="494" y="204" type="curve" smooth="yes"/>
      <point x="497" y="204"/>
      <point x="499" y="199"/>
      <point x="500" y="191" type="curve" smooth="yes"/>
      <point x="513" y="52" type="line"/>
      <point x="519" y="4"/>
      <point x="527" y="0"/>
      <point x="543" y="0" type="curve" smooth="yes"/>
      <point x="556" y="0" type="line" smooth="yes"/>
      <point x="571" y="0"/>
      <point x="578" y="22"/>
      <point x="578" y="65" type="curve" smooth="yes"/>
      <point x="578" y="955" type="line" smooth="yes"/>
      <point x="578" y="998"/>
      <point x="569" y="1006"/>
      <point x="554" y="1006" type="curve" smooth="yes"/>
      <point x="496" y="1006" type="line" smooth="yes"/>
      <point x="482" y="1006"/>
      <point x="472" y="998"/>
      <point x="472" y="955" type="curve" smooth="yes"/>
      <point x="472" y="369" type="line" smooth="yes"/>
      <point x="472" y="236"/>
      <point x="402" y="73"/>
      <point x="302" y="73" type="curve" smooth="yes"/>
      <point x="233" y="73"/>
      <point x="194" y="121"/>
      <point x="194" y="327" type="curve" smooth="yes"/>
      <point x="194" y="955" type="line" smooth="yes"/>
      <point x="194" y="998"/>
      <point x="185" y="1006"/>
      <point x="171" y="1006" type="curve" smooth="yes"/>
      <point x="111" y="1006" type="line" smooth="yes"/>
      <point x="97" y="1006"/>
      <point x="88" y="998"/>
      <point x="88" y="955" type="curve" smooth="yes"/>
      <point x="88" y="373" type="line" smooth="yes"/>
      <point x="88" y="43"/>
      <point x="171" y="-12"/>
    </contour>
  </outline>
</glyph>
<glyph name="w" format="1">
  <advance width="909"/>
  <unicode hex="0077"/>
  <outline>
    <contour>
      <point x="237" y="0" type="curve" smooth="yes"/>
      <point x="299" y="0" type="line" smooth="yes"/>
      <point x="314" y="0"/>
      <point x="329" y="21"/>
      <point x="336" y="64" type="curve" smooth="yes"/>
      <point x="454" y="772" type="line" smooth="yes"/>
      <point x="455" y="775"/>
      <point x="458" y="779"/>
      <point x="459" y="779" type="curve" smooth="yes"/>
      <point x="460" y="779"/>
      <point x="461" y="778"/>
      <point x="462" y="772" type="curve" smooth="yes"/>
      <point x="584" y="64" type="line" smooth="yes"/>
      <point x="591" y="23"/>
      <point x="606" y="0"/>
      <point x="621" y="0" type="curve" smooth="yes"/>
      <point x="681" y="0" type="line" smooth="yes"/>
      <point x="695" y="0"/>
      <point x="710" y="20"/>
      <point x="717" y="64" type="curve" smooth="yes"/>
      <point x="852" y="940" type="line" smooth="yes"/>
      <point x="855" y="956"/>
      <point x="857" y="968"/>
      <point x="857" y="978" type="curve" smooth="yes"/>
      <point x="857" y="996"/>
      <point x="852" y="1006"/>
      <point x="843" y="1006" type="curve" smooth="yes"/>
      <point x="791" y="1006" type="line" smooth="yes"/>
      <point x="775" y="1006"/>
      <point x="764" y="987"/>
      <point x="758" y="941" type="curve" smooth="yes"/>
      <point x="655" y="181" type="line" smooth="yes"/>
      <point x="655" y="177"/>
      <point x="654" y="173"/>
      <point x="651" y="173" type="curve" smooth="yes"/>
      <point x="650" y="173"/>
      <point x="649" y="175"/>
      <point x="648" y="180" type="curve" smooth="yes"/>
      <point x="514" y="941" type="line" smooth="yes"/>
      <point x="507" y="982"/>
      <point x="500" y="1006"/>
      <point x="486" y="1006" type="curve" smooth="yes"/>
      <point x="437" y="1006" type="line" smooth="yes"/>
      <point x="421" y="1006"/>
      <point x="413" y="987"/>
      <point x="406" y="941" type="curve" smooth="yes"/>
      <point x="278" y="181" type="line" smooth="yes"/>
      <point x="277" y="175"/>
      <point x="276" y="171"/>
      <point x="274" y="171" type="curve" smooth="yes"/>
      <point x="273" y="171"/>
      <point x="272" y="174"/>
      <point x="269" y="181" type="curve"/>
      <point x="156" y="940" type="line" smooth="yes"/>
      <point x="149" y="984"/>
      <point x="141" y="1006"/>
      <point x="125" y="1006" type="curve" smooth="yes"/>
      <point x="67" y="1006" type="line" smooth="yes"/>
      <point x="57" y="1006"/>
      <point x="52" y="995"/>
      <point x="52" y="974" type="curve" smooth="yes"/>
      <point x="52" y="965"/>
      <point x="53" y="953"/>
      <point x="56" y="940" type="curve" smooth="yes"/>
      <point x="204" y="64" type="line" smooth="yes"/>
      <point x="211" y="23"/>
      <point x="223" y="0"/>
    </contour>
  </outline>
</glyph>
<glyph name="braceright" format="1">
  <advance width="507"/>
  <unicode hex="007D"/>
  <outline>
    <contour>
      <point x="127" y="-77" type="curve" smooth="yes"/>
      <point x="182" y="-77" type="line" smooth="yes"/>
      <point x="277" y="-77"/>
      <point x="306" y="-46"/>
      <point x="307" y="286" type="curve" smooth="yes"/>
      <point x="307" y="288"/>
      <point x="308" y="489"/>
      <point x="308" y="492" type="curve" smooth="yes"/>
      <point x="309" y="641"/>
      <point x="316" y="673"/>
      <point x="360" y="673" type="curve"/>
      <point x="400" y="674"/>
      <point x="418" y="675"/>
      <point x="418" y="722" type="curve" smooth="yes"/>
      <point x="418" y="743" type="line" smooth="yes"/>
      <point x="418" y="796"/>
      <point x="401" y="798"/>
      <point x="360" y="798" type="curve" smooth="yes"/>
      <point x="316" y="798"/>
      <point x="308" y="824"/>
      <point x="308" y="975" type="curve" smooth="yes"/>
      <point x="308" y="1174" type="line" smooth="yes"/>
      <point x="307" y="1506"/>
      <point x="278" y="1543"/>
      <point x="182" y="1543" type="curve" smooth="yes"/>
      <point x="127" y="1543" type="line" smooth="yes"/>
      <point x="112" y="1543"/>
      <point x="100" y="1531"/>
      <point x="100" y="1504" type="curve" smooth="yes"/>
      <point x="100" y="1482" type="line" smooth="yes"/>
      <point x="100" y="1454"/>
      <point x="112" y="1446"/>
      <point x="152" y="1446" type="curve" smooth="yes"/>
      <point x="204" y="1446"/>
      <point x="206" y="1429"/>
      <point x="206" y="1147" type="curve" smooth="yes"/>
      <point x="206" y="932" type="line" smooth="yes"/>
      <point x="206" y="803"/>
      <point x="216" y="749"/>
      <point x="271" y="735" type="curve" smooth="yes"/>
      <point x="275" y="735"/>
      <point x="274" y="728"/>
      <point x="271" y="728" type="curve" smooth="yes"/>
      <point x="215" y="715"/>
      <point x="205" y="660"/>
      <point x="205" y="528" type="curve" smooth="yes"/>
      <point x="205" y="312" type="line" smooth="yes"/>
      <point x="205" y="33"/>
      <point x="203" y="21"/>
      <point x="152" y="21" type="curve" smooth="yes"/>
      <point x="112" y="21"/>
      <point x="100" y="12"/>
      <point x="100" y="-16" type="curve" smooth="yes"/>
      <point x="100" y="-37" type="line" smooth="yes"/>
      <point x="100" y="-65"/>
      <point x="112" y="-77"/>
    </contour>
  </outline>
</glyph>
<glyph name="sterling" format="1">
  <advance width="879"/>
  <unicode hex="00A3"/>
  <outline>
    <contour>
      <point x="561" y="1456" type="curve" smooth="yes"/>
      <point x="241" y="1456"/>
      <point x="213" y="1234"/>
      <point x="213" y="910" type="curve" smooth="yes"/>
      <point x="213" y="762" type="line"/>
      <point x="68" y="762" type="line" smooth="yes"/>
      <point x="52" y="762"/>
      <point x="36" y="756"/>
      <point x="36" y="728" type="curve" smooth="yes"/>
      <point x="36" y="711" type="line" smooth="yes"/>
      <point x="36" y="684"/>
      <point x="52" y="677"/>
      <point x="68" y="677" type="curve" smooth="yes"/>
      <point x="187" y="677" type="line" smooth="yes"/>
      <point x="208" y="677"/>
      <point x="214" y="661"/>
      <point x="214" y="634" type="curve" smooth="yes"/>
      <point x="214" y="110" type="line" smooth="yes"/>
      <point x="214" y="90"/>
      <point x="212" y="87"/>
      <point x="187" y="87" type="curve" smooth="yes"/>
      <point x="81" y="87" type="line" smooth="yes"/>
      <point x="44" y="87"/>
      <point x="36" y="82"/>
      <point x="36" y="55" type="curve" smooth="yes"/>
      <point x="36" y="32" type="line" smooth="yes"/>
      <point x="36" y="6"/>
      <point x="44" y="0"/>
      <point x="81" y="0" type="curve" smooth="yes"/>
      <point x="778" y="0" type="line" smooth="yes"/>
      <point x="802" y="0"/>
      <point x="810" y="3"/>
      <point x="810" y="27" type="curve" smooth="yes"/>
      <point x="810" y="57" type="line" smooth="yes"/>
      <point x="810" y="83"/>
      <point x="802" y="87"/>
      <point x="778" y="87" type="curve" smooth="yes"/>
      <point x="357" y="87" type="line" smooth="yes"/>
      <point x="329" y="87"/>
      <point x="327" y="92"/>
      <point x="327" y="129" type="curve" smooth="yes"/>
      <point x="327" y="677" type="line"/>
      <point x="656" y="677" type="line" smooth="yes"/>
      <point x="673" y="677"/>
      <point x="686" y="684"/>
      <point x="686" y="711" type="curve" smooth="yes"/>
      <point x="686" y="728" type="line" smooth="yes"/>
      <point x="686" y="756"/>
      <point x="673" y="762"/>
      <point x="656" y="762" type="curve" smooth="yes"/>
      <point x="329" y="762" type="line"/>
      <point x="329" y="910" type="line" smooth="yes"/>
      <point x="329" y="1262"/>
      <point x="360" y="1362"/>
      <point x="574" y="1362" type="curve" smooth="yes"/>
      <point x="679" y="1362"/>
      <point x="728" y="1326"/>
      <point x="766" y="1310" type="curve"/>
      <point x="793" y="1296"/>
      <point x="806" y="1295"/>
      <point x="814" y="1321" type="curve"/>
      <point x="820" y="1347" type="line" smooth="yes"/>
      <point x="821" y="1350"/>
      <point x="821" y="1353"/>
      <point x="821" y="1356" type="curve" smooth="yes"/>
      <point x="821" y="1376"/>
      <point x="802" y="1389"/>
      <point x="783" y="1400" type="curve" smooth="yes"/>
      <point x="759" y="1414"/>
      <point x="690" y="1456"/>
    </contour>
  </outline>
</glyph>
<glyph name="onehalf" format="1">
  <advance width="1639"/>
  <unicode hex="00BD"/>
  <outline>
    <contour>
      <point x="328" y="286" type="curve" smooth="yes"/>
      <point x="382" y="286" type="line" smooth="yes"/>
      <point x="393" y="286"/>
      <point x="400" y="306"/>
      <point x="400" y="340" type="curve" smooth="yes"/>
      <point x="400" y="1405" type="line" smooth="yes"/>
      <point x="400" y="1439"/>
      <point x="390" y="1438"/>
      <point x="371" y="1433" type="curve" smooth="yes"/>
      <point x="225" y="1393" type="line" smooth="yes"/>
      <point x="215" y="1390"/>
      <point x="207" y="1385"/>
      <point x="207" y="1371" type="curve" smooth="yes"/>
      <point x="207" y="1328" type="line" smooth="yes"/>
      <point x="207" y="1305"/>
      <point x="214" y="1302"/>
      <point x="225" y="1305" type="curve" smooth="yes"/>
      <point x="299" y="1324" type="line" smooth="yes"/>
      <point x="305" y="1326"/>
      <point x="310" y="1321"/>
      <point x="310" y="1305" type="curve" smooth="yes"/>
      <point x="310" y="340" type="line" smooth="yes"/>
      <point x="310" y="306"/>
      <point x="317" y="286"/>
    </contour>
    <contour>
      <point x="573" y="122" type="curve" smooth="yes"/>
      <point x="620" y="122" type="line" smooth="yes"/>
      <point x="625" y="122"/>
      <point x="632" y="133"/>
      <point x="634" y="149" type="curve" smooth="yes"/>
      <point x="874" y="1577" type="line" smooth="yes"/>
      <point x="876" y="1589"/>
      <point x="873" y="1604"/>
      <point x="868" y="1604" type="curve" smooth="yes"/>
      <point x="822" y="1604" type="line" smooth="yes"/>
      <point x="816" y="1604"/>
      <point x="810" y="1593"/>
      <point x="808" y="1577" type="curve" smooth="yes"/>
      <point x="567" y="149" type="line" smooth="yes"/>
      <point x="566" y="146"/>
      <point x="567" y="144"/>
      <point x="567" y="141" type="curve" smooth="yes"/>
      <point x="567" y="131"/>
      <point x="570" y="122"/>
    </contour>
    <contour>
      <point x="1420" y="286" type="line" smooth="yes"/>
      <point x="1431" y="286"/>
      <point x="1437" y="289"/>
      <point x="1437" y="313" type="curve" smooth="yes"/>
      <point x="1437" y="347" type="line" smooth="yes"/>
      <point x="1437" y="372"/>
      <point x="1431" y="375"/>
      <point x="1421" y="375" type="curve" smooth="yes"/>
      <point x="1116" y="375" type="line" smooth="yes"/>
      <point x="1114" y="375"/>
      <point x="1112" y="392"/>
      <point x="1113" y="395" type="curve" smooth="yes"/>
      <point x="1135" y="743"/>
      <point x="1478" y="864"/>
      <point x="1478" y="1167" type="curve" smooth="yes"/>
      <point x="1478" y="1376"/>
      <point x="1346" y="1448"/>
      <point x="1216" y="1448" type="curve" smooth="yes"/>
      <point x="1120" y="1448"/>
      <point x="1067" y="1428"/>
      <point x="990" y="1397" type="curve"/>
      <point x="987" y="1395"/>
      <point x="986" y="1377"/>
      <point x="986" y="1367" type="curve" smooth="yes"/>
      <point x="986" y="1354"/>
      <point x="994" y="1325"/>
      <point x="1003" y="1315" type="curve"/>
      <point x="1004" y="1310"/>
      <point x="1006" y="1308"/>
      <point x="1010" y="1312" type="curve"/>
      <point x="1081" y="1336"/>
      <point x="1109" y="1362"/>
      <point x="1215" y="1362" type="curve" smooth="yes"/>
      <point x="1313" y="1362"/>
      <point x="1374" y="1278"/>
      <point x="1374" y="1168" type="curve" smooth="yes"/>
      <point x="1374" y="905"/>
      <point x="1020" y="776"/>
      <point x="1013" y="370" type="curve" smooth="yes"/>
      <point x="1012" y="368"/>
      <point x="1012" y="323"/>
      <point x="1012" y="321" type="curve" smooth="yes"/>
      <point x="1012" y="291"/>
      <point x="1019" y="286"/>
      <point x="1031" y="286" type="curve" smooth="yes"/>
    </contour>
  </outline>
</glyph>
<glyph name="AE" format="1">
  <advance width="993"/>
  <unicode hex="00C6"/>
  <outline>
    <contour>
      <point x="70" y="0" type="curve" smooth="yes"/>
      <point x="131" y="0" type="line" smooth="yes"/>
      <point x="150" y="0"/>
      <point x="161" y="9"/>
      <point x="170" y="50" type="curve"/>
      <point x="251" y="336" type="line" smooth="yes"/>
      <point x="252" y="340"/>
      <point x="255" y="347"/>
      <point x="257" y="347" type="curve" smooth="yes"/>
      <point x="527" y="347" type="line"/>
      <point x="527" y="35" type="line" smooth="yes"/>
      <point x="527" y="1"/>
      <point x="536" y="0"/>
      <point x="550" y="0" type="curve" smooth="yes"/>
      <point x="907" y="0" type="line" smooth="yes"/>
      <point x="921" y="0"/>
      <point x="930" y="1"/>
      <point x="930" y="31" type="curve" smooth="yes"/>
      <point x="930" y="59" type="line" smooth="yes"/>
      <point x="930" y="90"/>
      <point x="921" y="90"/>
      <point x="907" y="90" type="curve" smooth="yes"/>
      <point x="642" y="90" type="line"/>
      <point x="642" y="673" type="line" smooth="yes"/>
      <point x="642" y="677"/>
      <point x="647" y="694"/>
      <point x="648" y="694" type="curve" smooth="yes"/>
      <point x="872" y="694" type="line" smooth="yes"/>
      <point x="887" y="694"/>
      <point x="896" y="697"/>
      <point x="896" y="727" type="curve" smooth="yes"/>
      <point x="896" y="756" type="line" smooth="yes"/>
      <point x="896" y="784"/>
      <point x="887" y="787"/>
      <point x="872" y="787" type="curve" smooth="yes"/>
      <point x="648" y="787" type="line" smooth="yes"/>
      <point x="646" y="787"/>
      <point x="642" y="797"/>
      <point x="642" y="801" type="curve" smooth="yes"/>
      <point x="642" y="1320" type="line" smooth="yes"/>
      <point x="642" y="1340"/>
      <point x="644" y="1348"/>
      <point x="652" y="1348" type="curve" smooth="yes"/>
      <point x="874" y="1348" type="line" smooth="yes"/>
      <point x="888" y="1348"/>
      <point x="897" y="1348"/>
      <point x="897" y="1379" type="curve" smooth="yes"/>
      <point x="897" y="1407" type="line" smooth="yes"/>
      <point x="897" y="1437"/>
      <point x="888" y="1438"/>
      <point x="874" y="1438" type="curve" smooth="yes"/>
      <point x="480" y="1438" type="line" smooth="yes"/>
      <point x="462" y="1438"/>
      <point x="449" y="1423"/>
      <point x="438" y="1383" type="curve" smooth="yes"/>
      <point x="61" y="56" type="line"/>
      <point x="57" y="51"/>
      <point x="56" y="47"/>
      <point x="56" y="44" type="curve" smooth="yes"/>
      <point x="56" y="40"/>
      <point x="58" y="36"/>
      <point x="58" y="31" type="curve" smooth="yes"/>
      <point x="58" y="9"/>
      <point x="63" y="0"/>
    </contour>
    <contour>
      <point x="294" y="427" type="line" smooth="yes"/>
      <point x="286" y="427"/>
      <point x="283" y="430"/>
      <point x="283" y="436" type="curve" smooth="yes"/>
      <point x="283" y="439"/>
      <point x="284" y="442"/>
      <point x="285" y="447" type="curve" smooth="yes"/>
      <point x="522" y="1324" type="line" smooth="yes"/>
      <point x="523" y="1325"/>
      <point x="526" y="1335"/>
      <point x="526" y="1335" type="curve" smooth="yes"/>
      <point x="527" y="1335"/>
      <point x="527" y="1323"/>
      <point x="527" y="1321" type="curve" smooth="yes"/>
      <point x="527" y="445" type="line" smooth="yes"/>
      <point x="527" y="442"/>
      <point x="526" y="427"/>
      <point x="525" y="427" type="curve" smooth="yes"/>
    </contour>
  </outline>
</glyph>
<glyph name="germandbls" format="1">
  <advance width="812"/>
  <unicode hex="00DF"/>
  <outline>
    <contour>
      <point x="176" y="0" type="curve" smooth="yes"/>
      <point x="111" y="0" type="line" smooth="yes"/>
      <point x="95" y="0"/>
      <point x="84" y="1"/>
      <point x="84" y="39" type="curve" smooth="yes"/>
      <point x="84" y="1045" type="line" smooth="yes"/>
      <point x="84" y="1337"/>
      <point x="207" y="1438"/>
      <point x="381" y="1438" type="curve" smooth="yes"/>
      <point x="558" y="1438"/>
      <point x="679" y="1338"/>
      <point x="679" y="1117" type="curve" smooth="yes"/>
      <point x="679" y="985"/>
      <point x="640" y="898"/>
      <point x="526" y="855" type="curve" smooth="yes"/>
      <point x="515" y="851"/>
      <point x="515" y="842"/>
      <point x="527" y="838" type="curve" smooth="yes"/>
      <point x="700" y="778"/>
      <point x="736" y="610"/>
      <point x="736" y="444" type="curve" smooth="yes"/>
      <point x="736" y="96"/>
      <point x="558" y="0"/>
      <point x="313" y="0" type="curve" smooth="yes"/>
      <point x="303" y="0"/>
      <point x="297" y="23"/>
      <point x="297" y="46" type="curve" smooth="yes"/>
      <point x="297" y="67"/>
      <point x="302" y="88"/>
      <point x="313" y="88" type="curve" smooth="yes"/>
      <point x="538" y="88"/>
      <point x="624" y="207"/>
      <point x="624" y="440" type="curve" smooth="yes"/>
      <point x="624" y="669"/>
      <point x="551" y="801"/>
      <point x="386" y="801" type="curve" smooth="yes"/>
      <point x="375" y="801"/>
      <point x="369" y="824"/>
      <point x="369" y="846" type="curve" smooth="yes"/>
      <point x="369" y="867"/>
      <point x="374" y="887"/>
      <point x="386" y="887" type="curve" smooth="yes"/>
      <point x="537" y="887"/>
      <point x="569" y="989"/>
      <point x="569" y="1113" type="curve" smooth="yes"/>
      <point x="569" y="1267"/>
      <point x="520" y="1348"/>
      <point x="383" y="1348" type="curve" smooth="yes"/>
      <point x="227" y="1348"/>
      <point x="196" y="1218"/>
      <point x="196" y="1038" type="curve" smooth="yes"/>
      <point x="196" y="38" type="line" smooth="yes"/>
      <point x="196" y="18"/>
      <point x="194" y="0"/>
    </contour>
  </outline>
</glyph>
<glyph name="dotlessi" format="1">
  <advance width="306"/>
  <unicode hex="0131"/>
  <outline>
    <contour>
      <point x="130" y="0" type="curve" smooth="yes"/>
      <point x="187" y="0" type="line" smooth="yes"/>
      <point x="202" y="0"/>
      <point x="210" y="10"/>
      <point x="210" y="53" type="curve" smooth="yes"/>
      <point x="210" y="953" type="line" smooth="yes"/>
      <point x="210" y="996"/>
      <point x="202" y="1006"/>
      <point x="187" y="1006" type="curve" smooth="yes"/>
      <point x="130" y="1006" type="line" smooth="yes"/>
      <point x="115" y="1006"/>
      <point x="107" y="996"/>
      <point x="107" y="953" type="curve" smooth="yes"/>
      <point x="107" y="53" type="line" smooth="yes"/>
      <point x="107" y="10"/>
      <point x="115" y="0"/>
    </contour>
  </outline>
</glyph>
<glyph name="OE" format="1">
  <advance width="1013"/>
  <unicode hex="0152"/>
  <outline>
    <contour>
      <point x="445" y="0" type="line" smooth="yes"/>
      <point x="210" y="0"/>
      <point x="89" y="122"/>
      <point x="89" y="723" type="curve" smooth="yes"/>
      <point x="89" y="1271"/>
      <point x="205" y="1438"/>
      <point x="440" y="1438" type="curve" smooth="yes"/>
      <point x="917" y="1438" type="line" smooth="yes"/>
      <point x="932" y="1438"/>
      <point x="940" y="1431"/>
      <point x="940" y="1401" type="curve" smooth="yes"/>
      <point x="940" y="1385" type="line" smooth="yes"/>
      <point x="940" y="1354"/>
      <point x="932" y="1348"/>
      <point x="917" y="1348" type="curve" smooth="yes"/>
      <point x="667" y="1348" type="line" smooth="yes"/>
      <point x="659" y="1348"/>
      <point x="657" y="1340"/>
      <point x="657" y="1320" type="curve" smooth="yes"/>
      <point x="657" y="800" type="line" smooth="yes"/>
      <point x="657" y="796"/>
      <point x="662" y="786"/>
      <point x="663" y="786" type="curve" smooth="yes"/>
      <point x="897" y="786" type="line" smooth="yes"/>
      <point x="912" y="786"/>
      <point x="921" y="779"/>
      <point x="921" y="751" type="curve" smooth="yes"/>
      <point x="921" y="734" type="line" smooth="yes"/>
      <point x="921" y="703"/>
      <point x="912" y="697"/>
      <point x="897" y="697" type="curve" smooth="yes"/>
      <point x="664" y="697" type="line" smooth="yes"/>
      <point x="663" y="697"/>
      <point x="657" y="680"/>
      <point x="657" y="676" type="curve" smooth="yes"/>
      <point x="657" y="109" type="line" smooth="yes"/>
      <point x="657" y="105"/>
      <point x="659" y="90"/>
      <point x="660" y="90" type="curve" smooth="yes"/>
      <point x="924" y="90" type="line" smooth="yes"/>
      <point x="938" y="90"/>
      <point x="946" y="84"/>
      <point x="946" y="53" type="curve" smooth="yes"/>
      <point x="946" y="37" type="line" smooth="yes"/>
      <point x="946" y="7"/>
      <point x="938" y="0"/>
      <point x="924" y="0" type="curve" smooth="yes"/>
    </contour>
    <contour>
      <point x="540" y="89" type="line" smooth="yes"/>
      <point x="541" y="89"/>
      <point x="542" y="403"/>
      <point x="542" y="718" type="curve" smooth="yes"/>
      <point x="542" y="1033"/>
      <point x="541" y="1348"/>
      <point x="540" y="1348" type="curve" smooth="yes"/>
      <point x="443" y="1348" type="line"/>
      <point x="274" y="1347"/>
      <point x="204" y="1187"/>
      <point x="204" y="723" type="curve" smooth="yes"/>
      <point x="204" y="205"/>
      <point x="278" y="90"/>
      <point x="443" y="90" type="curve"/>
    </contour>
  </outline>
</glyph>
<glyph name="oe" format="1">
  <advance width="1065"/>
  <unicode hex="0153"/>
  <outline>
    <contour>
      <point x="343" y="-12" type="curve" smooth="yes"/>
      <point x="432" y="-12"/>
      <point x="513" y="40"/>
      <point x="550" y="202" type="curve"/>
      <point x="595" y="51"/>
      <point x="662" y="-12"/>
      <point x="764" y="-12" type="curve" smooth="yes"/>
      <point x="915" y="-12"/>
      <point x="975" y="116"/>
      <point x="975" y="252" type="curve" smooth="yes"/>
      <point x="975" y="258"/>
      <point x="974" y="289"/>
      <point x="973" y="291" type="curve"/>
      <point x="973" y="301"/>
      <point x="968" y="304"/>
      <point x="961" y="304" type="curve" smooth="yes"/>
      <point x="912" y="304" type="line" smooth="yes"/>
      <point x="908" y="304"/>
      <point x="905" y="294"/>
      <point x="904" y="285" type="curve" smooth="yes"/>
      <point x="897" y="207"/>
      <point x="890" y="73"/>
      <point x="768" y="73" type="curve" smooth="yes"/>
      <point x="630" y="73"/>
      <point x="598" y="293"/>
      <point x="597" y="466" type="curve" smooth="yes"/>
      <point x="597" y="475"/>
      <point x="600" y="481"/>
      <point x="604" y="481" type="curve" smooth="yes"/>
      <point x="945" y="481" type="line" smooth="yes"/>
      <point x="979" y="481"/>
      <point x="984" y="586"/>
      <point x="984" y="590" type="curve" smooth="yes"/>
      <point x="974" y="876"/>
      <point x="908" y="1019"/>
      <point x="753" y="1019" type="curve" smooth="yes"/>
      <point x="656" y="1019"/>
      <point x="594" y="964"/>
      <point x="547" y="830" type="curve"/>
      <point x="504" y="972"/>
      <point x="431" y="1019"/>
      <point x="345" y="1019" type="curve" smooth="yes"/>
      <point x="211" y="1019"/>
      <point x="80" y="962"/>
      <point x="80" y="504" type="curve" smooth="yes"/>
      <point x="80" y="52"/>
      <point x="215" y="-12"/>
    </contour>
    <contour>
      <point x="601" y="549" type="line" smooth="yes"/>
      <point x="599" y="549"/>
      <point x="599" y="602"/>
      <point x="599" y="608" type="curve" smooth="yes"/>
      <point x="617" y="877"/>
      <point x="677" y="934"/>
      <point x="752" y="934" type="curve" smooth="yes"/>
      <point x="859" y="934"/>
      <point x="890" y="793"/>
      <point x="898" y="558" type="curve" smooth="yes"/>
      <point x="898" y="556"/>
      <point x="898" y="549"/>
      <point x="897" y="549" type="curve" smooth="yes"/>
    </contour>
    <contour>
      <point x="340" y="73" type="curve" smooth="yes"/>
      <point x="248" y="73"/>
      <point x="184" y="134"/>
      <point x="184" y="504" type="curve" smooth="yes"/>
      <point x="184" y="888"/>
      <point x="252" y="934"/>
      <point x="340" y="934" type="curve" smooth="yes"/>
      <point x="425" y="934"/>
      <point x="495" y="890"/>
      <point x="495" y="504" type="curve" smooth="yes"/>
      <point x="495" y="131"/>
      <point x="430" y="73"/>
    </contour>
  </outline>
</glyph>
<glyph name="caron" format="1">
  <advance width="298"/>
  <unicode hex="02C7"/>
  <outline>
    <contour>
      <point x="139" y="1235" type="curve" smooth="yes"/>
      <point x="158" y="1235" type="line" smooth="yes"/>
      <point x="179" y="1235"/>
      <point x="193" y="1256"/>
      <point x="212" y="1305" type="curve" smooth="yes"/>
      <point x="273" y="1463" type="line" smooth="yes"/>
      <point x="274" y="1466"/>
      <point x="275" y="1471"/>
      <point x="275" y="1474" type="curve" smooth="yes"/>
      <point x="275" y="1479"/>
      <point x="274" y="1483"/>
      <point x="270" y="1484" type="curve"/>
      <point x="270" y="1495"/>
      <point x="249" y="1502"/>
      <point x="236" y="1502" type="curve" smooth="yes"/>
      <point x="226" y="1502"/>
      <point x="218" y="1496"/>
      <point x="212" y="1484" type="curve" smooth="yes"/>
      <point x="158" y="1375" type="line" smooth="yes"/>
      <point x="155" y="1368"/>
      <point x="152" y="1363"/>
      <point x="149" y="1363" type="curve" smooth="yes"/>
      <point x="146" y="1363"/>
      <point x="143" y="1368"/>
      <point x="139" y="1375" type="curve" smooth="yes"/>
      <point x="86" y="1484" type="line" smooth="yes"/>
      <point x="80" y="1496"/>
      <point x="72" y="1502"/>
      <point x="62" y="1502" type="curve" smooth="yes"/>
      <point x="49" y="1502"/>
      <point x="27" y="1495"/>
      <point x="27" y="1484" type="curve"/>
      <point x="24" y="1483"/>
      <point x="23" y="1479"/>
      <point x="23" y="1475" type="curve" smooth="yes"/>
      <point x="23" y="1471"/>
      <point x="24" y="1467"/>
      <point x="25" y="1463" type="curve" smooth="yes"/>
      <point x="86" y="1305" type="line" smooth="yes"/>
      <point x="105" y="1256"/>
      <point x="119" y="1235"/>
    </contour>
  </outline>
</glyph>
<glyph name="dotaccent" format="1">
  <advance width="352"/>
  <unicode hex="02D9"/>
  <outline>
    <contour>
      <point x="-3" y="98" type="curve" smooth="yes"/>
      <point x="97" y="98" type="line" smooth="yes"/>
      <point x="112" y="98"/>
      <point x="123" y="110"/>
      <point x="123" y="153" type="curve" smooth="yes"/>
      <point x="123" y="230" type="line" smooth="yes"/>
      <point x="123" y="273"/>
      <point x="112" y="285"/>
      <point x="97" y="285" type="curve" smooth="yes"/>
      <point x="-3" y="285" type="line" smooth="yes"/>
      <point x="-17" y="285"/>
      <point x="-29" y="273"/>
      <point x="-29" y="230" type="curve" smooth="yes"/>
      <point x="-29" y="153" type="line" smooth="yes"/>
      <point x="-29" y="110"/>
      <point x="-17" y="98"/>
    </contour>
  </outline>
</glyph>
<glyph name="quotedblbase" format="1">
  <advance width="560"/>
  <unicode hex="201E"/>
  <outline>
    <contour>
      <point x="365" y="-217" type="curve" smooth="yes"/>
      <point x="384" y="-217" type="line" smooth="yes"/>
      <point x="399" y="-217"/>
      <point x="400" y="-194"/>
      <point x="402" y="-156" type="curve" smooth="yes"/>
      <point x="428" y="271" type="line" smooth="yes"/>
      <point x="428" y="276" type="line" smooth="yes"/>
      <point x="428" y="309"/>
      <point x="419" y="341"/>
      <point x="405" y="341" type="curve" smooth="yes"/>
      <point x="343" y="341" type="line" smooth="yes"/>
      <point x="330" y="341"/>
      <point x="319" y="313"/>
      <point x="319" y="282" type="curve" smooth="yes"/>
      <point x="319" y="272" type="line" smooth="yes"/>
      <point x="347" y="-156" type="line" smooth="yes"/>
      <point x="349" y="-194"/>
      <point x="351" y="-217"/>
    </contour>
    <contour>
      <point x="178" y="-217" type="curve" smooth="yes"/>
      <point x="197" y="-217" type="line" smooth="yes"/>
      <point x="212" y="-217"/>
      <point x="213" y="-194"/>
      <point x="215" y="-156" type="curve" smooth="yes"/>
      <point x="241" y="271" type="line" smooth="yes"/>
      <point x="241" y="276" type="line" smooth="yes"/>
      <point x="241" y="309"/>
      <point x="232" y="341"/>
      <point x="218" y="341" type="curve" smooth="yes"/>
      <point x="156" y="341" type="line" smooth="yes"/>
      <point x="143" y="341"/>
      <point x="132" y="313"/>
      <point x="132" y="282" type="curve" smooth="yes"/>
      <point x="132" y="272" type="line" smooth="yes"/>
      <point x="160" y="-156" type="line" smooth="yes"/>
      <point x="162" y="-194"/>
      <point x="164" y="-217"/>
    </contour>
  </outline>
</glyph>
<glyph name="perthousand" format="1">
  <advance width="1431"/>
  <unicode hex="2030"/>
  <outline>
    <contour>
      <point x="364" y="-82" type="curve" smooth="yes"/>
      <point x="385" y="-82" type="line" smooth="yes"/>
      <point x="401" y="-82"/>
      <point x="415" y="-54"/>
      <point x="421" y="-12" type="curve" smooth="yes"/>
      <point x="644" y="1466" type="line" smooth="yes"/>
      <point x="645" y="1473"/>
      <point x="646" y="1481"/>
      <point x="646" y="1488" type="curve" smooth="yes"/>
      <point x="646" y="1514"/>
      <point x="638" y="1536"/>
      <point x="629" y="1536" type="curve" smooth="yes"/>
      <point x="609" y="1536" type="line" smooth="yes"/>
      <point x="593" y="1536"/>
      <point x="578" y="1508"/>
      <point x="572" y="1466" type="curve" smooth="yes"/>
      <point x="349" y="-12" type="line" smooth="yes"/>
      <point x="348" y="-19"/>
      <point x="347" y="-26"/>
      <point x="347" y="-33" type="curve" smooth="yes"/>
      <point x="347" y="-59"/>
      <point x="354" y="-82"/>
    </contour>
    <contour>
      <point x="204" y="748" type="curve" smooth="yes"/>
      <point x="146" y="748"/>
      <point x="114" y="868"/>
      <point x="114" y="1052" type="curve" smooth="yes"/>
      <point x="114" y="1240"/>
      <point x="144" y="1358"/>
      <point x="204" y="1358" type="curve" smooth="yes"/>
      <point x="264" y="1358"/>
      <point x="292" y="1240"/>
      <point x="292" y="1052" type="curve" smooth="yes"/>
      <point x="292" y="868"/>
      <point x="262" y="748"/>
    </contour>
    <contour>
      <point x="204" y="664" type="curve" smooth="yes"/>
      <point x="308" y="664"/>
      <point x="364" y="801"/>
      <point x="364" y="1051" type="curve" smooth="yes"/>
      <point x="364" y="1299"/>
      <point x="310" y="1442"/>
      <point x="204" y="1442" type="curve" smooth="yes"/>
      <point x="96" y="1442"/>
      <point x="42" y="1299"/>
      <point x="42" y="1051" type="curve" smooth="yes"/>
      <point x="42" y="801"/>
      <point x="98" y="664"/>
    </contour>
    <contour>
      <point x="796" y="83" type="curve" smooth="yes"/>
      <point x="739" y="83"/>
      <point x="706" y="203"/>
      <point x="706" y="387" type="curve" smooth="yes"/>
      <point x="706" y="575"/>
      <point x="737" y="694"/>
      <point x="796" y="694" type="curve" smooth="yes"/>
      <point x="856" y="694"/>
      <point x="884" y="575"/>
      <point x="884" y="387" type="curve" smooth="yes"/>
      <point x="884" y="203"/>
      <point x="855" y="83"/>
    </contour>
    <contour>
      <point x="796" y="-1" type="curve" smooth="yes"/>
      <point x="900" y="-1"/>
      <point x="956" y="137"/>
      <point x="956" y="387" type="curve" smooth="yes"/>
      <point x="956" y="635"/>
      <point x="902" y="778"/>
      <point x="796" y="778" type="curve" smooth="yes"/>
      <point x="688" y="778"/>
      <point x="634" y="635"/>
      <point x="634" y="387" type="curve" smooth="yes"/>
      <point x="634" y="137"/>
      <point x="690" y="-1"/>
    </contour>
    <contour>
      <point x="1207" y="83" type="curve" smooth="yes"/>
      <point x="1150" y="83"/>
      <point x="1117" y="203"/>
      <point x="1117" y="387" type="curve" smooth="yes"/>
      <point x="1117" y="575"/>
      <point x="1148" y="694"/>
      <point x="1207" y="694" type="curve" smooth="yes"/>
      <point x="1267" y="694"/>
      <point x="1295" y="575"/>
      <point x="1295" y="387" type="curve" smooth="yes"/>
      <point x="1295" y="203"/>
      <point x="1266" y="83"/>
    </contour>
    <contour>
      <point x="1207" y="-1" type="curve" smooth="yes"/>
      <point x="1311" y="-1"/>
      <point x="1367" y="137"/>
      <point x="1367" y="387" type="curve" smooth="yes"/>
      <point x="1367" y="635"/>
      <point x="1313" y="778"/>
      <point x="1207" y="778" type="curve" smooth="yes"/>
      <point x="1099" y="778"/>
      <point x="1045" y="635"/>
      <point x="1045" y="387" type="curve" smooth="yes"/>
      <point x="1045" y="137"/>
      <point x="1101" y="-1"/>
    </contour>
  </outline>
</glyph>
<glyph name="guilsinglright" format="1">
  <advance width="457"/>
  <unicode hex="203A"/>
  <outline>
    <contour>
      <point x="71" y="233" type="curve" smooth="yes"/>
      <point x="75" y="233"/>
      <point x="80" y="239"/>
      <point x="85" y="243" type="curve" smooth="yes"/>
      <point x="362" y="512" type="line" smooth="yes"/>
      <point x="384" y="532"/>
      <point x="387" y="554"/>
      <point x="387" y="581" type="curve" smooth="yes"/>
      <point x="387" y="657" type="line" smooth="yes"/>
      <point x="387" y="685"/>
      <point x="384" y="704"/>
      <point x="361" y="727" type="curve" smooth="yes"/>
      <point x="86" y="1016" type="line" smooth="yes"/>
      <point x="81" y="1022"/>
      <point x="77" y="1024"/>
      <point x="73" y="1024" type="curve" smooth="yes"/>
      <point x="66" y="1024"/>
      <point x="62" y="1011"/>
      <point x="62" y="984" type="curve" smooth="yes"/>
      <point x="62" y="940" type="line" smooth="yes"/>
      <point x="62" y="897"/>
      <point x="67" y="888"/>
      <point x="85" y="867" type="curve"/>
      <point x="311" y="631" type="line" smooth="yes"/>
      <point x="314" y="628"/>
      <point x="315" y="622"/>
      <point x="315" y="617" type="curve" smooth="yes"/>
      <point x="315" y="613"/>
      <point x="314" y="607"/>
      <point x="311" y="604" type="curve" smooth="yes"/>
      <point x="86" y="388" type="line" smooth="yes"/>
      <point x="67" y="369"/>
      <point x="62" y="362"/>
      <point x="62" y="319" type="curve" smooth="yes"/>
      <point x="62" y="268" type="line" smooth="yes"/>
      <point x="62" y="243"/>
      <point x="66" y="233"/>
    </contour>
  </outline>
</glyph>
<glyph name="Euro" format="1">
  <advance width="677"/>
  <unicode hex="20AC"/>
  <outline>
    <contour>
      <point x="451" y="-14" type="curve" smooth="yes"/>
      <point x="456" y="-14" type="line" smooth="yes"/>
      <point x="484" y="-14"/>
      <point x="596" y="-13"/>
      <point x="596" y="19" type="curve" smooth="yes"/>
      <point x="596" y="87" type="line" smooth="yes"/>
      <point x="596" y="94"/>
      <point x="593" y="99"/>
      <point x="588" y="99" type="curve"/>
      <point x="555" y="88"/>
      <point x="500" y="79"/>
      <point x="460" y="79" type="curve" smooth="yes"/>
      <point x="332" y="79"/>
      <point x="230" y="132"/>
      <point x="209" y="538" type="curve"/>
      <point x="384" y="538" type="line" smooth="yes"/>
      <point x="399" y="538"/>
      <point x="406" y="539"/>
      <point x="406" y="582" type="curve" smooth="yes"/>
      <point x="406" y="598" type="line" smooth="yes"/>
      <point x="406" y="641"/>
      <point x="399" y="641"/>
      <point x="384" y="641" type="curve" smooth="yes"/>
      <point x="205" y="641" type="line"/>
      <point x="204" y="667"/>
      <point x="204" y="693"/>
      <point x="204" y="721" type="curve" smooth="yes"/>
      <point x="204" y="751"/>
      <point x="204" y="780"/>
      <point x="205" y="808" type="curve"/>
      <point x="384" y="808" type="line" smooth="yes"/>
      <point x="399" y="808"/>
      <point x="406" y="809"/>
      <point x="406" y="852" type="curve" smooth="yes"/>
      <point x="406" y="867" type="line" smooth="yes"/>
      <point x="406" y="910"/>
      <point x="399" y="911"/>
      <point x="384" y="911" type="curve" smooth="yes"/>
      <point x="210" y="911" type="line"/>
      <point x="237" y="1306"/>
      <point x="354" y="1359"/>
      <point x="478" y="1359" type="curve" smooth="yes"/>
      <point x="547" y="1359"/>
      <point x="604" y="1336"/>
      <point x="607" y="1336" type="curve" smooth="yes"/>
      <point x="611" y="1336"/>
      <point x="614" y="1337"/>
      <point x="614" y="1347" type="curve" smooth="yes"/>
      <point x="614" y="1412" type="line"/>
      <point x="607" y="1444"/>
      <point x="515" y="1453"/>
      <point x="461" y="1453" type="curve" smooth="yes"/>
      <point x="297" y="1453"/>
      <point x="129" y="1397"/>
      <point x="95" y="911" type="curve"/>
      <point x="53" y="911" type="line" smooth="yes"/>
      <point x="38" y="911"/>
      <point x="32" y="910"/>
      <point x="32" y="867" type="curve" smooth="yes"/>
      <point x="32" y="852" type="line" smooth="yes"/>
      <point x="32" y="809"/>
      <point x="38" y="808"/>
      <point x="53" y="808" type="curve" smooth="yes"/>
      <point x="90" y="808" type="line"/>
      <point x="90" y="780"/>
      <point x="89" y="751"/>
      <point x="89" y="721" type="curve" smooth="yes"/>
      <point x="89" y="693"/>
      <point x="89" y="667"/>
      <point x="90" y="641" type="curve"/>
      <point x="53" y="641" type="line" smooth="yes"/>
      <point x="38" y="641"/>
      <point x="32" y="641"/>
      <point x="32" y="598" type="curve" smooth="yes"/>
      <point x="32" y="582" type="line" smooth="yes"/>
      <point x="32" y="539"/>
      <point x="38" y="538"/>
      <point x="53" y="538" type="curve" smooth="yes"/>
      <point x="94" y="538" type="line"/>
      <point x="126" y="20"/>
      <point x="295" y="-14"/>
    </contour>
  </outline>
</glyph>
<glyph name="infinity" format="1">
  <advance width="1089"/>
  <unicode hex="221E"/>
  <outline>
    <contour>
      <point x="948.5" y="515" type="curve" smooth="yes"/>
      <point x="948.5" y="631"/>
      <point x="883.5" y="659"/>
      <point x="816.5" y="659" type="curve" smooth="yes"/>
      <point x="716.5" y="659"/>
      <point x="667.5" y="573"/>
      <point x="601.5" y="517" type="curve"/>
      <point x="663.5" y="460"/>
      <point x="717.5" y="373"/>
      <point x="816.5" y="373" type="curve" smooth="yes"/>
      <point x="883.5" y="373"/>
      <point x="948.5" y="399"/>
    </contour>
    <contour>
      <point x="542.5" y="469" type="curve" smooth="yes"/>
      <point x="512.5" y="469"/>
      <point x="430.5" y="276"/>
      <point x="246.5" y="276" type="curve" smooth="yes"/>
      <point x="143.5" y="276"/>
      <point x="68.5" y="362"/>
      <point x="68.5" y="516" type="curve" smooth="yes"/>
      <point x="68.5" y="670"/>
      <point x="143.5" y="756"/>
      <point x="246.5" y="756" type="curve" smooth="yes"/>
      <point x="430.5" y="756"/>
      <point x="518.5" y="568"/>
      <point x="543.5" y="568" type="curve" smooth="yes"/>
      <point x="570.5" y="568"/>
      <point x="658.5" y="756"/>
      <point x="842.5" y="756" type="curve" smooth="yes"/>
      <point x="945.5" y="756"/>
      <point x="1020.5" y="670"/>
      <point x="1020.5" y="516" type="curve" smooth="yes"/>
      <point x="1020.5" y="362"/>
      <point x="945.5" y="276"/>
      <point x="842.5" y="276" type="curve" smooth="yes"/>
      <point x="658.5" y="276"/>
      <point x="572.5" y="469"/>
    </contour>
    <contour>
      <point x="140.5" y="515" type="curve" smooth="yes"/>
      <point x="140.5" y="399"/>
      <point x="205.5" y="373"/>
      <point x="272.5" y="373" type="curve" smooth="yes"/>
      <point x="371.5" y="373"/>
      <point x="425.5" y="460"/>
      <point x="487.5" y="517" type="curve"/>
      <point x="421.5" y="573"/>
      <point x="372.5" y="659"/>
      <point x="272.5" y="659" type="curve" smooth="yes"/>
      <point x="205.5" y="659"/>
      <point x="140.5" y="631"/>
    </contour>
  </outline>
</glyph>
<glyph name="approxequal" format="1">
  <advance width="1345"/>
  <unicode hex="2248"/>
  <outline>
    <contour>
      <point x="926" y="276" type="curve" smooth="yes"/>
      <point x="743" y="276"/>
      <point x="529" y="444"/>
      <point x="390" y="444" type="curve" smooth="yes"/>
      <point x="334" y="444"/>
      <point x="293" y="396"/>
      <point x="250" y="330" type="curve" smooth="yes"/>
      <point x="242" y="317"/>
      <point x="231" y="305"/>
      <point x="215" y="305" type="curve" smooth="yes"/>
      <point x="196" y="305"/>
      <point x="180" y="322"/>
      <point x="180" y="351" type="curve" smooth="yes"/>
      <point x="180" y="360"/>
      <point x="181" y="369"/>
      <point x="186" y="378" type="curve" smooth="yes"/>
      <point x="240" y="482"/>
      <point x="286" y="542"/>
      <point x="394" y="542" type="curve" smooth="yes"/>
      <point x="564" y="542"/>
      <point x="763" y="375"/>
      <point x="911" y="375" type="curve" smooth="yes"/>
      <point x="990" y="375"/>
      <point x="1042" y="398"/>
      <point x="1084" y="505" type="curve" smooth="yes"/>
      <point x="1087" y="512"/>
      <point x="1091" y="528"/>
      <point x="1112" y="528" type="curve" smooth="yes"/>
      <point x="1141" y="528"/>
      <point x="1164" y="506"/>
      <point x="1164" y="485" type="curve" smooth="yes"/>
      <point x="1164" y="476"/>
      <point x="1161" y="467"/>
      <point x="1156" y="456" type="curve" smooth="yes"/>
      <point x="1122" y="379"/>
      <point x="1067" y="276"/>
    </contour>
    <contour>
      <point x="926" y="616" type="curve" smooth="yes"/>
      <point x="743" y="616"/>
      <point x="529" y="784"/>
      <point x="390" y="784" type="curve" smooth="yes"/>
      <point x="334" y="784"/>
      <point x="293" y="736"/>
      <point x="250" y="670" type="curve" smooth="yes"/>
      <point x="242" y="657"/>
      <point x="231" y="645"/>
      <point x="215" y="645" type="curve" smooth="yes"/>
      <point x="196" y="645"/>
      <point x="180" y="662"/>
      <point x="180" y="691" type="curve" smooth="yes"/>
      <point x="180" y="700"/>
      <point x="181" y="709"/>
      <point x="186" y="718" type="curve" smooth="yes"/>
      <point x="240" y="822"/>
      <point x="286" y="882"/>
      <point x="394" y="882" type="curve" smooth="yes"/>
      <point x="564" y="882"/>
      <point x="763" y="715"/>
      <point x="911" y="715" type="curve" smooth="yes"/>
      <point x="990" y="715"/>
      <point x="1042" y="738"/>
      <point x="1084" y="845" type="curve" smooth="yes"/>
      <point x="1087" y="852"/>
      <point x="1091" y="868"/>
      <point x="1112" y="868" type="curve" smooth="yes"/>
      <point x="1141" y="868"/>
      <point x="1164" y="846"/>
      <point x="1164" y="825" type="curve" smooth="yes"/>
      <point x="1164" y="816"/>
      <point x="1161" y="807"/>
      <point x="1156" y="796" type="curve" smooth="yes"/>
      <point x="1122" y="719"/>
      <point x="1067" y="616"/>
    </contour>
  </outline>
</glyph>
<glyph name="notequal" format="1">
  <advance width="699"/>
  <unicode hex="2260"/>
  <outline>
    <contour>
      <point x="368" y="460" type="line"/>
      <point x="440" y="627" type="line"/>
      <point x="585" y="627" type="line" smooth="yes"/>
      <point x="600" y="627"/>
      <point x="606" y="628"/>
      <point x="606" y="671" type="curve" smooth="yes"/>
      <point x="606" y="686" type="line" smooth="yes"/>
      <point x="606" y="729"/>
      <point x="600" y="730"/>
      <point x="585" y="730" type="curve" smooth="yes"/>
      <point x="484" y="730" type="line"/>
      <point x="566" y="918" type="line" smooth="yes"/>
      <point x="568" y="923"/>
      <point x="568" y="928"/>
      <point x="568" y="932" type="curve" smooth="yes"/>
      <point x="568" y="949"/>
      <point x="555" y="957"/>
      <point x="539" y="957" type="curve" smooth="yes"/>
      <point x="521" y="957"/>
      <point x="501" y="946"/>
      <point x="494" y="924" type="curve"/>
      <point x="409" y="730" type="line"/>
      <point x="114" y="730" type="line" smooth="yes"/>
      <point x="99" y="730"/>
      <point x="93" y="729"/>
      <point x="93" y="686" type="curve" smooth="yes"/>
      <point x="93" y="671" type="line" smooth="yes"/>
      <point x="93" y="628"/>
      <point x="99" y="627"/>
      <point x="114" y="627" type="curve" smooth="yes"/>
      <point x="365" y="627" type="line"/>
      <point x="293" y="460" type="line"/>
      <point x="114" y="460" type="line" smooth="yes"/>
      <point x="99" y="460"/>
      <point x="93" y="460"/>
      <point x="93" y="417" type="curve" smooth="yes"/>
      <point x="93" y="401" type="line" smooth="yes"/>
      <point x="93" y="358"/>
      <point x="99" y="357"/>
      <point x="114" y="357" type="curve" smooth="yes"/>
      <point x="248" y="357" type="line"/>
      <point x="160" y="152" type="line" smooth="yes"/>
      <point x="158" y="146"/>
      <point x="156" y="142"/>
      <point x="156" y="137" type="curve" smooth="yes"/>
      <point x="156" y="121"/>
      <point x="168" y="113"/>
      <point x="184" y="113" type="curve" smooth="yes"/>
      <point x="201" y="113"/>
      <point x="222" y="124"/>
      <point x="232" y="146" type="curve" smooth="yes"/>
      <point x="323" y="357" type="line"/>
      <point x="585" y="357" type="line" smooth="yes"/>
      <point x="600" y="357"/>
      <point x="606" y="358"/>
      <point x="606" y="401" type="curve" smooth="yes"/>
      <point x="606" y="417" type="line" smooth="yes"/>
      <point x="606" y="460"/>
      <point x="600" y="460"/>
      <point x="585" y="460" type="curve" smooth="yes"/>
    </contour>
  </outline>
</glyph>
<glyph name="greaterequal" format="1">
  <advance width="672"/>
  <unicode hex="2265"/>
  <outline>
    <contour>
      <point x="204" y="225" type="curve" smooth="yes"/>
      <point x="193" y="225"/>
      <point x="187" y="239"/>
      <point x="187" y="264" type="curve" smooth="yes"/>
      <point x="187" y="303" type="line" smooth="yes"/>
      <point x="187" y="347"/>
      <point x="199" y="357"/>
      <point x="219" y="382" type="curve"/>
      <point x="452" y="608" type="line" smooth="yes"/>
      <point x="456" y="612"/>
      <point x="458" y="617"/>
      <point x="458" y="622" type="curve" smooth="yes"/>
      <point x="458" y="627"/>
      <point x="456" y="633"/>
      <point x="453" y="637" type="curve" smooth="yes"/>
      <point x="218" y="895" type="line"/>
      <point x="199" y="921"/>
      <point x="187" y="938"/>
      <point x="187" y="982" type="curve" smooth="yes"/>
      <point x="187" y="1010" type="line" smooth="yes"/>
      <point x="187" y="1037"/>
      <point x="193" y="1052"/>
      <point x="204" y="1052" type="curve" smooth="yes"/>
      <point x="210" y="1052"/>
      <point x="216" y="1049"/>
      <point x="222" y="1041" type="curve" smooth="yes"/>
      <point x="501" y="723" type="line"/>
      <point x="528" y="686"/>
      <point x="537" y="676"/>
      <point x="537" y="634" type="curve" smooth="yes"/>
      <point x="537" y="616" type="line" smooth="yes"/>
      <point x="537" y="574"/>
      <point x="529" y="560"/>
      <point x="502" y="524" type="curve"/>
      <point x="221" y="241" type="line" smooth="yes"/>
      <point x="214" y="233"/>
      <point x="208" y="225"/>
    </contour>
    <contour>
      <point x="514" y="77" type="curve" smooth="yes"/>
      <point x="152" y="77" type="line" smooth="yes"/>
      <point x="135" y="77"/>
      <point x="125" y="81"/>
      <point x="125" y="109" type="curve" smooth="yes"/>
      <point x="125" y="124" type="line" smooth="yes"/>
      <point x="125" y="150"/>
      <point x="135" y="154"/>
      <point x="152" y="154" type="curve" smooth="yes"/>
      <point x="514" y="154" type="line" smooth="yes"/>
      <point x="530" y="154"/>
      <point x="541" y="150"/>
      <point x="541" y="122" type="curve" smooth="yes"/>
      <point x="541" y="107" type="line" smooth="yes"/>
      <point x="541" y="81"/>
      <point x="530" y="77"/>
    </contour>
  </outline>
</glyph>
